<?xml version="1.0" standalone="no"?>
<!DOCTYPE svg PUBLIC "-//W3C//DTD SVG 20010904//EN"
 "http://www.w3.org/TR/2001/REC-SVG-20010904/DTD/svg10.dtd">
<svg version="1.0" xmlns="http://www.w3.org/2000/svg"
 width="1920.000000pt" height="1080.000000pt" viewBox="0 0 1920.000000 1080.000000"
 preserveAspectRatio="xMidYMid meet">

<g transform="translate(0.000000,1080.000000) scale(0.100000,-0.100000)"
fill="#000000" stroke="none">
<path d="M0 5400 l0 -5400 9600 0 9600 0 0 5400 0 5400 -9600 0 -9600 0 0
-5400z m9370 5260 c-19 -13 -30 -13 -30 0 0 6 10 10 23 10 18 0 19 -2 7 -10z
m-380 -46 c0 -8 -5 -12 -10 -9 -6 4 -8 11 -5 16 9 14 15 11 15 -7z m105 6 c3
-5 -3 -10 -15 -10 -12 0 -18 5 -15 10 3 6 10 10 15 10 5 0 12 -4 15 -10z m65
-5 c0 -10 -55 -54 -67 -55 -7 0 -13 -4 -13 -8 0 -5 -16 -8 -35 -8 -21 1 -35 6
-35 14 0 6 6 12 13 12 7 1 5 6 -5 14 -10 7 -18 16 -18 20 0 12 43 6 54 -9 10
-13 15 -13 46 4 36 19 60 25 60 16z m-220 -15 c0 -5 -7 -7 -15 -4 -8 4 -15 8
-15 10 0 2 7 4 15 4 8 0 15 -4 15 -10z m-260 -9 c0 -12 -20 -25 -27 -18 -7 7
6 27 18 27 5 0 9 -4 9 -9z m1045 -2 c11 -17 -1 -21 -15 -4 -8 9 -8 15 -2 15 6
0 14 -5 17 -11z m-1115 -9 c0 -5 -5 -10 -11 -10 -5 0 -7 5 -4 10 3 6 8 10 11
10 2 0 4 -4 4 -10z m990 -15 c0 -8 -7 -15 -15 -15 -16 0 -20 12 -8 23 11 12
23 8 23 -8z m-610 -5 c0 -5 -4 -10 -10 -10 -5 0 -10 5 -10 10 0 6 5 10 10 10
6 0 10 -4 10 -10z m-370 -13 c0 -8 -11 -19 -25 -25 -20 -9 -23 -9 -18 3 3 8 0
15 -6 15 -6 0 -11 -5 -11 -11 0 -7 -11 -8 -30 -4 -22 5 -30 3 -30 -7 0 -13
-34 -24 -132 -45 -60 -12 -22 -76 39 -66 21 4 33 1 33 -6 0 -6 -6 -11 -12 -12
-7 0 -4 -4 7 -9 l20 -9 -20 -1 c-11 -2 -24 -1 -30 0 -5 2 -21 2 -34 1 -13 0
-29 3 -35 8 -20 16 -76 24 -76 10 0 -7 -9 -2 -20 11 -19 22 -19 24 -4 42 10
10 22 18 28 18 6 0 17 9 23 19 17 27 83 48 94 30 7 -11 19 -9 61 13 47 25 69
30 156 36 12 1 22 -4 22 -11z m39 -23 c-9 -11 -8 -14 5 -14 28 0 17 -17 -16
-25 -74 -16 -108 -17 -102 -1 3 8 -2 16 -13 20 -10 3 5 3 33 0 38 -4 54 -2 63
10 8 9 10 16 5 16 -5 0 -2 4 6 9 20 13 34 2 19 -15z m166 -4 c-3 -5 -15 -10
-26 -10 -11 0 -17 5 -14 10 3 6 15 10 26 10 11 0 17 -4 14 -10z m490 0 c3 -5
-1 -10 -9 -10 -9 0 -16 5 -16 10 0 6 4 10 9 10 6 0 13 -4 16 -10z m266 -3 c-1
-12 -15 -9 -19 4 -3 6 1 10 8 8 6 -3 11 -8 11 -12z m66 -13 c-9 -9 -28 6 -21
18 4 6 10 6 17 -1 6 -6 8 -13 4 -17z m-394 -11 c13 -8 7 -23 -9 -23 -10 0 -14
-6 -10 -15 9 -25 -10 -17 -22 10 -6 14 -18 25 -27 25 -8 0 -15 5 -15 10 0 10
63 4 83 -7z m-159 -2 c3 -4 3 -11 0 -14 -8 -8 -34 3 -34 14 0 11 27 12 34 0z
m211 -1 c3 -5 12 -7 20 -3 8 3 15 0 15 -7 0 -6 -4 -9 -9 -5 -5 3 -12 1 -16 -5
-7 -12 -45 5 -45 20 0 13 27 13 35 0z m-284 -31 c6 -13 6 -19 -1 -19 -5 0 -10
7 -10 16 0 13 -2 13 -17 -2 -17 -17 -18 -17 -21 0 -3 12 -10 15 -25 10 -21 -6
-21 -5 -3 8 24 18 63 11 77 -13z m-521 1 c-20 -13 -73 -13 -65 0 3 6 23 10 43
10 28 0 33 -3 22 -10z m298 -3 c25 6 30 -12 6 -21 -16 -6 -12 -21 5 -21 9 0
41 -31 41 -40 0 -3 -18 5 -40 17 -22 13 -40 29 -40 36 0 6 -7 12 -15 12 -16 0
-20 12 -8 23 3 4 11 3 18 -3 6 -5 21 -7 33 -3z m482 4 c0 -12 -20 -25 -27 -18
-7 7 6 27 18 27 5 0 9 -4 9 -9z m895 -2 c12 -19 -5 -23 -22 -6 -16 16 -16 17
-1 17 9 0 20 -5 23 -11z m-1109 -27 c-22 -5 -30 3 -21 18 5 8 11 7 22 -2 15
-12 14 -13 -1 -16z m274 18 c0 -5 -5 -10 -11 -10 -5 0 -7 5 -4 10 3 6 8 10 11
10 2 0 4 -4 4 -10z m-220 -21 c0 -5 -7 -9 -15 -9 -15 0 -20 12 -9 23 8 8 24
-1 24 -14z m60 6 c0 -8 -7 -15 -15 -15 -9 0 -12 6 -9 15 4 8 10 15 15 15 5 0
9 -7 9 -15z m1130 5 c0 -5 -4 -10 -9 -10 -6 0 -13 5 -16 10 -3 6 1 10 9 10 9
0 16 -4 16 -10z m48 -8 c2 -7 -2 -10 -12 -6 -9 3 -16 11 -16 16 0 13 23 5 28
-10z m-1372 -18 c-3 -9 -6 -21 -6 -26 0 -18 -14 1 -17 22 -2 13 3 20 13 20 11
0 14 -5 10 -16z m-86 -20 c0 -8 -4 -12 -10 -9 -5 3 -10 10 -10 16 0 5 5 9 10
9 6 0 10 -7 10 -16z m36 5 c3 -6 0 -18 -9 -26 -13 -14 -15 -13 -14 11 2 27 11
34 23 15z m154 -9 c0 -5 -7 -10 -15 -10 -8 0 -15 5 -15 10 0 6 7 10 15 10 8 0
15 -4 15 -10z m935 0 c-3 -5 -10 -10 -16 -10 -5 0 -9 5 -9 10 0 6 7 10 16 10
8 0 12 -4 9 -10z m-1735 -31 c0 -12 -57 -12 -64 0 -3 4 -3 10 -1 13 8 8 65 -4
65 -13z m307 -33 c-4 -9 -14 -16 -22 -16 -9 0 -14 3 -12 8 2 4 7 16 11 26 5
14 10 16 18 8 6 -6 8 -18 5 -26z m233 24 c0 -5 -2 -10 -4 -10 -3 0 -8 5 -11
10 -3 6 -1 10 4 10 6 0 11 -4 11 -10z m1330 0 c0 -5 -10 -10 -22 -9 -22 0 -22
1 -3 9 11 5 21 9 23 9 1 1 2 -3 2 -9z m-1437 -7 c-7 -2 -19 -2 -25 0 -7 3 -2
5 12 5 14 0 19 -2 13 -5z m-362 -13 c12 -7 25 -8 32 -3 7 5 25 10 42 11 27 2
28 1 13 -14 -13 -13 -39 -17 -113 -20 -57 -1 -102 -7 -111 -15 -8 -6 -17 -9
-21 -5 -3 3 -1 6 5 6 7 0 12 7 12 15 0 8 7 15 15 15 8 0 15 3 15 8 0 12 88 14
111 2z m163 -5 c-4 -8 -15 -15 -26 -15 -17 0 -18 3 -8 15 7 8 19 15 26 15 8 0
11 -6 8 -15z m146 5 c-20 -13 -40 -13 -40 0 0 6 12 10 28 10 21 0 24 -2 12
-10z m1100 0 c0 -5 -4 -10 -9 -10 -6 0 -13 5 -16 10 -3 6 1 10 9 10 9 0 16 -4
16 -10z m-1052 -19 c3 -8 -1 -12 -9 -9 -7 2 -15 10 -17 17 -3 8 1 12 9 9 7 -2
15 -10 17 -17z m2072 9 c0 -5 -2 -10 -4 -10 -3 0 -8 5 -11 10 -3 6 -1 10 4 10
6 0 11 -4 11 -10z m-1688 -15 c0 -5 -5 -11 -11 -13 -6 -2 -11 4 -11 13 0 9 5
15 11 13 6 -2 11 -8 11 -13z m-939 -32 c-3 -7 -11 -13 -19 -13 -14 0 -37 34
-28 43 10 9 52 -17 47 -30z m1650 30 c-7 -2 -19 -2 -25 0 -7 3 -2 5 12 5 14 0
19 -2 13 -5z m577 -18 c0 -8 -2 -15 -4 -15 -2 0 -6 7 -10 15 -3 8 -1 15 4 15
6 0 10 -7 10 -15z m628 4 c-2 -6 -8 -10 -13 -10 -5 0 -11 4 -13 10 -2 6 4 11
13 11 9 0 15 -5 13 -11z m-1977 -20 c-14 -14 -28 -18 -39 -13 -9 4 -20 6 -24
6 -5 -1 -8 2 -8 7 0 10 26 17 69 20 l25 1 -23 -21z m899 2 c0 -17 -18 -21 -24
-6 -3 9 0 15 9 15 8 0 15 -4 15 -9z m409 -20 c-15 -5 -22 6 -14 19 6 9 10 9
16 -1 5 -8 4 -15 -2 -18z m151 19 c0 -5 -14 -7 -32 -3 -46 8 -48 13 -5 13 21
0 37 -4 37 -10z m629 -36 c12 -15 21 -34 21 -43 -1 -12 -6 -9 -20 9 -10 14
-29 38 -41 54 -22 28 -22 29 -2 17 12 -6 31 -23 42 -37z m-2913 21 c14 -13 13
-15 -5 -15 -21 0 -35 13 -24 24 9 9 13 8 29 -9z m904 7 c0 -13 -12 -22 -22
-16 -10 6 -1 24 13 24 5 0 9 -4 9 -8z m1193 -64 c-7 -13 -23 -9 -23 6 0 8 -8
17 -17 21 -17 7 -16 8 2 15 14 5 23 1 31 -14 6 -12 9 -24 7 -28z m-542 29 c-1
-12 -15 -9 -19 4 -3 6 1 10 8 8 6 -3 11 -8 11 -12z m149 3 c0 -5 -4 -10 -10
-10 -5 0 -10 5 -10 10 0 6 5 10 10 10 6 0 10 -4 10 -10z m1000 0 c0 -5 -4 -10
-10 -10 -5 0 -10 5 -10 10 0 6 5 10 10 10 6 0 10 -4 10 -10z m-1230 -10 c0 -5
-7 -10 -16 -10 -8 0 -12 5 -9 10 3 6 10 10 16 10 5 0 9 -4 9 -10z m470 6 c0
-2 -7 -7 -16 -10 -8 -3 -12 -2 -9 4 6 10 25 14 25 6z m-1952 -46 c-32 -29 -33
-30 -10 -36 31 -9 27 -24 -7 -24 -20 0 -34 8 -45 25 -18 27 -13 50 9 41 8 -3
19 2 25 10 7 8 23 14 36 14 24 0 23 -1 -8 -30z m262 10 c30 -11 50 -19 43 -20
-6 0 -19 -3 -29 -7 -12 -4 -15 -3 -10 5 5 8 -3 12 -26 12 -18 0 -44 3 -57 7
-23 6 -23 7 -5 14 26 10 22 11 84 -11z m1630 -2 c0 -13 -23 -5 -28 10 -2 7 2
10 12 6 9 -3 16 -11 16 -16z m-1760 2 c0 -5 -4 -10 -10 -10 -5 0 -10 5 -10 10
0 6 5 10 10 10 6 0 10 -4 10 -10z m657 -6 c2 -5 -12 -10 -31 -11 -29 -1 -33 1
-23 13 13 15 49 15 54 -2z m978 6 c3 -6 -4 -14 -17 -19 -29 -11 -35 -6 -18 14
14 17 26 19 35 5z m-1075 -10 c0 -5 -9 -10 -20 -10 -11 0 -20 5 -20 10 0 6 9
10 20 10 11 0 20 -4 20 -10z m1105 1 c3 -5 2 -12 -3 -15 -5 -3 -9 1 -9 9 0 17
3 19 12 6z m-1230 -11 c4 -6 15 -8 26 -5 20 7 27 -9 8 -20 -16 -10 -56 3 -63
20 -6 17 19 21 29 5z m-505 -20 c0 -5 -6 -10 -14 -10 -8 0 -18 5 -21 10 -3 6
3 10 14 10 12 0 21 -4 21 -10z m70 -4 c0 -7 -7 -19 -15 -26 -20 -16 -38 -1
-29 23 7 20 44 23 44 3z m370 -8 c0 -5 -7 -8 -15 -4 -8 3 -20 -3 -27 -13 -11
-14 -58 -36 -58 -27 0 2 11 15 24 29 32 34 76 43 76 15z m479 1 c-15 -9 -32
-2 -24 11 3 5 13 6 21 3 12 -4 13 -8 3 -14z m480 0 c-16 -10 -23 -4 -14 10 3
6 11 8 17 5 6 -4 5 -9 -3 -15z m219 11 c6 0 12 -8 12 -17 0 -14 -2 -15 -9 -4
-5 7 -13 11 -18 8 -6 -4 -19 1 -29 9 -18 15 -18 15 6 10 14 -3 31 -6 38 -6z
m-451 -6 c-3 -3 -12 -4 -19 -1 -8 3 -5 6 6 6 11 1 17 -2 13 -5z m-302 -14 c-3
-5 -18 -10 -33 -10 -21 0 -24 2 -12 10 20 13 53 13 45 0z m2135 0 c0 -5 -2
-10 -4 -10 -3 0 -8 5 -11 10 -3 6 -1 10 4 10 6 0 11 -4 11 -10z m-1276 -15
c15 -11 17 -18 8 -27 -13 -13 -42 6 -42 28 0 18 10 17 34 -1z m-1417 -7 c-2
-7 -12 -13 -23 -13 -10 0 -19 -6 -19 -13 0 -15 -26 -33 -38 -25 -11 7 52 63
71 63 7 0 12 -6 9 -12z m723 -10 c0 -5 -16 -16 -35 -24 -41 -17 -45 -17 -45
-4 0 6 7 10 15 10 8 0 15 5 15 10 0 14 -30 12 -59 -4 -19 -11 -21 -14 -7 -19
9 -4 13 -13 10 -22 -7 -16 11 -21 21 -5 3 5 13 6 22 3 12 -5 7 -10 -18 -23
-19 -9 -47 -28 -63 -43 -33 -31 -48 -33 -66 -12 -11 13 -9 20 9 38 11 13 21
26 21 30 0 10 -54 4 -61 -6 -4 -5 -12 -6 -18 -3 -22 14 -10 26 27 27 23 1 28
3 15 6 -24 5 -32 22 -10 24 45 4 72 9 86 15 21 10 113 21 129 16 6 -2 12 -8
12 -14z m500 12 c0 -5 -5 -10 -11 -10 -5 0 -7 5 -4 10 3 6 8 10 11 10 2 0 4
-4 4 -10z m141 -9 c-6 -10 -7 -21 -4 -25 3 -3 -1 -6 -9 -6 -9 0 -21 7 -29 16
-10 13 -10 17 2 25 8 5 22 9 32 9 14 0 16 -4 8 -19z m-1251 -1 c0 -5 -5 -10
-11 -10 -5 0 -7 5 -4 10 3 6 8 10 11 10 2 0 4 -4 4 -10z m985 -11 l40 -21 -40
6 c-27 5 -35 4 -26 -3 15 -10 11 -11 -65 -26 -12 -3 -33 -22 -48 -44 -15 -21
-36 -41 -47 -44 -10 -3 -17 -1 -13 4 3 5 0 9 -5 9 -22 0 -10 17 24 36 38 20
48 39 15 29 -11 -4 -20 -2 -20 4 0 6 11 11 24 11 13 0 37 7 52 16 l29 15 -32
-6 c-40 -8 -45 10 -6 20 22 5 31 2 42 -14 7 -12 18 -21 23 -21 7 0 6 5 -1 13
-8 10 -7 17 1 25 14 14 7 16 53 -9z m199 6 c-4 -8 -13 -15 -20 -15 -8 0 -26
-7 -39 -16 -23 -15 -25 -15 -25 0 0 9 7 16 15 16 8 0 15 7 15 15 0 10 10 15
30 15 22 0 28 -4 24 -15z m-534 -31 c0 -9 -5 -14 -12 -12 -18 6 -21 28 -4 28
9 0 16 -7 16 -16z m160 6 c0 -5 -4 -10 -10 -10 -5 0 -10 5 -10 10 0 6 5 10 10
10 6 0 10 -4 10 -10z m390 -15 c0 -8 -4 -15 -10 -15 -5 0 -7 7 -4 15 4 8 8 15
10 15 2 0 4 -7 4 -15z m-1720 0 c0 -2 -12 -11 -28 -19 -23 -12 -30 -12 -46 -1
-16 12 -14 14 20 18 22 2 42 4 47 5 4 1 7 0 7 -3z m840 -10 c0 -8 -7 -15 -15
-15 -8 0 -15 7 -15 15 0 8 7 15 15 15 8 0 15 -7 15 -15z m839 -6 c-16 -10 -23
-4 -14 10 3 6 11 8 17 5 6 -4 5 -9 -3 -15z m-85 -22 c4 4 4 0 0 -10 -8 -21
-34 -23 -34 -2 0 8 -5 15 -11 15 -5 0 -7 5 -4 11 5 7 13 5 24 -5 10 -9 21 -13
25 -9z m-1334 3 c0 -5 -8 -10 -17 -10 -15 0 -16 2 -3 10 19 12 20 12 20 0z
m1485 0 c-3 -5 -11 -10 -16 -10 -6 0 -7 5 -4 10 3 6 11 10 16 10 6 0 7 -4 4
-10z m-222 -7 c-7 -2 -19 -2 -25 0 -7 3 -2 5 12 5 14 0 19 -2 13 -5z m-93 -28
c-7 -8 -17 -12 -23 -8 -6 4 -3 11 8 19 23 17 32 10 15 -11z m-1270 -20 c0 -8
-9 -15 -20 -15 -11 0 -20 -5 -20 -11 0 -8 -4 -8 -14 0 -8 7 -25 9 -40 5 -20
-5 -26 -2 -26 9 0 16 24 23 88 26 22 1 32 -3 32 -14z m240 -5 c0 -5 -9 -10
-21 -10 -11 0 -17 5 -14 10 3 6 13 10 21 10 8 0 14 -4 14 -10z m868 -14 c0
-20 -8 -26 -37 -33 -42 -10 -84 -6 -76 8 4 5 14 9 24 9 10 0 26 9 36 20 25 28
53 26 53 -4z m232 4 c0 -5 -5 -10 -11 -10 -5 0 -7 5 -4 10 3 6 8 10 11 10 2 0
4 -4 4 -10z m-1260 -4 c0 -11 -19 -15 -25 -6 -3 5 1 10 9 10 9 0 16 -2 16 -4z
m220 -16 c12 -8 9 -10 -12 -10 -15 0 -30 -4 -33 -10 -7 -12 -45 -14 -45 -2 0
6 36 22 70 30 3 1 12 -3 20 -8z m380 0 c0 -15 -30 -27 -58 -22 -25 5 -25 5 9
17 44 16 49 17 49 5z m-248 -12 c-9 -9 -15 -9 -24 0 -9 9 -7 12 12 12 19 0 21
-3 12 -12z m68 2 c0 -5 -4 -10 -10 -10 -5 0 -10 5 -10 10 0 6 5 10 10 10 6 0
10 -4 10 -10z m-795 -10 c-3 -5 -11 -10 -16 -10 -6 0 -7 5 -4 10 3 6 11 10 16
10 6 0 7 -4 4 -10z m400 0 c3 -5 1 -10 -4 -10 -6 0 -11 5 -11 10 0 6 2 10 4
10 3 0 8 -4 11 -10z m-131 -26 c4 -9 4 -19 1 -22 -7 -8 -35 19 -29 29 8 14 21
11 28 -7z m1036 6 c5 8 12 11 15 8 14 -13 -7 -28 -33 -25 -15 2 -38 -3 -51
-12 -18 -12 -25 -13 -29 -3 -2 7 -8 9 -14 6 -5 -3 -2 -14 8 -25 9 -11 15 -21
12 -24 -5 -5 -44 -13 -70 -14 -9 -1 -20 -10 -23 -21 -3 -11 -11 -20 -16 -20
-17 0 -9 28 15 57 21 24 26 26 40 14 21 -18 33 -6 16 14 -9 11 -22 14 -39 10
-21 -5 -23 -4 -12 9 9 11 31 16 65 16 28 0 58 4 66 10 9 6 19 5 28 -2 10 -9
16 -8 22 2z m-1622 -32 c-2 -6 -10 -14 -16 -16 -7 -2 -10 2 -6 12 7 18 28 22
22 4z m732 -7 c0 -13 -10 -18 -44 -22 -17 -2 -31 1 -33 8 -3 7 9 13 29 16 18
2 36 5 41 5 4 1 7 -2 7 -7z m910 -15 c0 -8 -6 -17 -12 -19 -7 -3 -1 -6 15 -6
40 -1 33 -19 -10 -26 -21 -4 -51 -16 -67 -28 -20 -14 -31 -17 -34 -9 -2 7 -11
12 -19 12 -12 0 -14 -7 -9 -30 7 -35 -2 -38 -35 -9 -24 20 -24 21 -4 36 11 8
44 26 73 40 29 15 57 32 63 40 15 17 39 17 39 -1z m-1067 -22 c-4 -10 -9 -12
-15 -6 -12 12 -1 35 12 27 5 -3 6 -13 3 -21z m817 6 c-8 -5 -19 -10 -25 -10
-5 0 -3 5 5 10 8 5 20 10 25 10 6 0 3 -5 -5 -10z m-920 -31 c0 -5 -10 -9 -22
-7 -15 2 -23 -2 -23 -12 0 -17 -38 -36 -43 -21 -2 5 -11 7 -20 4 -9 -3 -1 6
18 20 36 26 90 36 90 16z m1240 1 c0 -5 -4 -10 -10 -10 -5 0 -10 5 -10 10 0 6
5 10 10 10 6 0 10 -4 10 -10z m-1760 -15 c0 -8 -4 -15 -10 -15 -5 0 -10 7 -10
15 0 8 5 15 10 15 6 0 10 -7 10 -15z m667 -37 c-2 -24 -43 -43 -62 -28 -6 5
-15 7 -18 3 -4 -3 -28 -7 -54 -8 -64 -3 -63 -3 -63 -19 0 -7 -15 -17 -32 -22
-18 -5 -38 -20 -44 -32 -11 -22 -12 -22 -28 -6 -13 12 -14 19 -6 24 6 4 10 11
8 16 -1 5 9 10 23 12 17 2 29 11 32 23 4 17 14 19 79 19 52 0 69 3 58 10 -11
8 -8 9 12 4 31 -7 68 10 68 33 0 12 3 13 14 4 8 -7 14 -22 13 -33z m426 -3
c39 -3 43 -12 7 -17 -16 -3 -30 0 -30 5 0 5 -11 6 -25 3 -14 -4 -25 -3 -25 2
0 15 14 23 29 16 9 -4 28 -7 44 -9z m377 5 c0 -5 -4 -10 -10 -10 -5 0 -10 -8
-11 -17 0 -11 -2 -13 -6 -5 -3 7 -2 19 1 27 6 17 26 20 26 5z m896 -5 c4 -8
10 -12 15 -9 17 10 9 -23 -9 -39 -22 -20 -42 -6 -42 28 0 35 25 49 36 20z
m-1956 -14 c0 -6 -4 -13 -10 -16 -5 -3 -10 1 -10 9 0 9 5 16 10 16 6 0 10 -4
10 -9z m790 -1 c0 -5 -4 -10 -10 -10 -5 0 -10 5 -10 10 0 6 5 10 10 10 6 0 10
-4 10 -10z m460 0 c0 -5 -20 -23 -45 -40 -44 -31 -63 -25 -26 7 11 9 18 20 15
25 -3 4 1 5 9 2 8 -3 18 -1 22 5 8 14 25 14 25 1z m-640 -19 c0 -16 -86 -35
-95 -21 -4 6 6 10 24 10 16 0 33 5 36 10 8 13 35 13 35 1z m1990 -11 c0 -5 -7
-7 -15 -4 -8 4 -12 10 -9 15 6 11 24 2 24 -11z m-2115 -10 c-28 -12 -37 -12
-30 0 3 6 16 10 28 9 21 0 21 -1 2 -9z m495 6 c0 -3 -4 -8 -10 -11 -5 -3 -10
-1 -10 4 0 6 5 11 10 11 6 0 10 -2 10 -4z m-798 -18 c9 2 19 -2 23 -8 3 -5 -2
-10 -14 -10 -27 0 -51 10 -51 22 0 5 6 6 13 1 6 -4 19 -6 29 -5z m547 -19 c-8
-4 -24 -6 -37 -2 -15 3 -22 1 -20 -7 2 -7 -10 -21 -27 -30 -40 -25 -56 -24
-26 0 23 20 23 20 2 20 -12 0 -21 4 -21 9 0 11 35 21 75 21 17 0 37 5 45 10
10 6 16 6 19 -1 2 -6 -3 -15 -10 -20z m1847 18 c8 3 14 1 14 -5 0 -5 -7 -13
-16 -16 -8 -3 -12 -10 -9 -16 3 -5 1 -10 -4 -10 -6 0 -11 7 -11 16 0 8 -4 12
-10 9 -5 -3 -10 0 -10 9 0 15 23 28 28 15 2 -4 10 -5 18 -2z m-2316 -7 c0 -5
-4 -10 -10 -10 -5 0 -10 5 -10 10 0 6 5 10 10 10 6 0 10 -4 10 -10z m-153 -7
c-10 -3 -16 -11 -13 -18 3 -8 -5 -15 -19 -18 -24 -4 -25 2 -2 31 5 6 19 11 31
11 18 -1 18 -2 3 -6z m43 -13 c0 -5 -4 -10 -10 -10 -5 0 -10 5 -10 10 0 6 5
10 10 10 6 0 10 -4 10 -10z m1780 0 c0 -5 -4 -10 -10 -10 -5 0 -10 5 -10 10 0
6 5 10 10 10 6 0 10 -4 10 -10z m-108 -32 c-9 -9 -12 -7 -12 12 0 19 3 21 12
12 9 -9 9 -15 0 -24z m-1485 16 c-3 -3 -12 -4 -19 -1 -8 3 -5 6 6 6 11 1 17
-2 13 -5z m-63 -30 c17 -7 10 -34 -9 -34 -17 0 -28 17 -20 30 7 12 8 12 29 4z
m41 -23 c-3 -6 -11 -11 -17 -11 -6 0 -6 6 2 15 14 17 26 13 15 -4z m2312 -43
c-3 -8 -6 -5 -6 6 -1 11 2 17 5 13 3 -3 4 -12 1 -19z m-2172 3 c-13 -13 -145
-30 -145 -19 0 8 28 12 61 9 8 -1 26 3 40 8 32 13 56 14 44 2z m-170 -20 c3
-5 1 -12 -5 -16 -5 -3 -10 1 -10 9 0 18 6 21 15 7z m155 -34 c0 -16 -97 -64
-107 -53 -4 4 -1 11 7 16 8 5 29 18 45 29 36 23 55 26 55 8z m270 -17 c-8 -5
-22 -10 -30 -10 -13 0 -13 1 0 10 8 5 22 10 30 10 13 0 13 -1 0 -10z m-402
-28 c2 -8 -9 -12 -35 -12 -38 0 -38 0 -13 14 28 16 42 15 48 -2z m249 -8 c-3
-3 -12 -4 -19 -1 -8 3 -5 6 6 6 11 1 17 -2 13 -5z m118 -34 c-3 -5 -10 -10
-16 -10 -5 0 -9 5 -9 10 0 6 7 10 16 10 8 0 12 -4 9 -10z m-98 -26 c-3 -3 -12
-4 -19 -1 -8 3 -5 6 6 6 11 1 17 -2 13 -5z m1125 -51 c26 -25 38 -63 20 -63
-13 0 -49 43 -57 68 -9 29 3 28 37 -5z m-2062 -14 c0 -5 -4 -9 -10 -9 -5 0
-10 7 -10 16 0 8 5 12 10 9 6 -3 10 -10 10 -16z m3318 -55 c-10 -10 -28 6 -28
24 0 15 1 15 17 -1 9 -9 14 -19 11 -23z m-3343 -34 c-20 -22 -31 -20 -22 5 4
8 14 15 23 15 16 0 16 -2 -1 -20z m3690 -49 c-9 -16 -25 -3 -18 15 4 10 9 12
15 6 6 -6 7 -15 3 -21z m-3728 -23 c-3 -8 -6 -5 -6 6 -1 11 2 17 5 13 3 -3 4
-12 1 -19z m53 -33 c-8 -9 -6 -14 5 -19 8 -3 15 -12 15 -21 0 -17 25 -21 35
-5 3 6 1 10 -4 10 -6 0 -11 5 -11 10 0 17 26 11 45 -10 17 -19 18 -19 63 6
l46 26 22 -27 c19 -24 23 -25 31 -11 6 11 15 14 27 10 14 -5 17 -14 12 -36 -7
-35 18 -68 36 -50 9 9 7 17 -7 32 -10 11 -14 20 -9 20 15 0 77 -41 71 -47 -9
-8 21 -35 32 -29 5 4 13 -6 19 -21 6 -21 5 -34 -7 -52 -15 -23 -14 -24 6 -13
17 9 24 8 37 -7 19 -21 8 -35 -21 -25 -15 6 -16 5 -5 -7 7 -8 20 -14 30 -14
13 0 16 -8 15 -31 -2 -29 0 -31 23 -26 26 5 26 5 10 -26 -13 -25 -14 -40 -5
-85 10 -46 14 -54 30 -50 11 3 19 11 19 18 0 7 6 16 13 19 6 3 2 3 -11 0 -15
-4 -24 0 -29 12 -4 10 -2 19 5 22 7 2 12 15 12 28 0 15 6 24 15 24 8 0 15 5
15 11 0 5 5 7 11 3 8 -4 8 -9 0 -17 -16 -16 -14 -57 2 -57 15 0 37 -62 37
-105 0 -27 0 -28 20 -10 12 11 17 22 11 29 -13 17 -22 80 -12 94 6 10 10 10
20 -2 10 -12 18 -13 32 -6 17 10 18 8 9 -15 -6 -17 -6 -25 1 -25 6 0 7 -14 3
-37 -6 -31 -5 -35 7 -23 9 8 14 29 12 58 -2 38 -1 43 12 32 9 -8 15 -8 15 -2
0 13 49 72 60 72 4 0 -1 -17 -12 -38 -18 -37 -16 -72 3 -72 5 0 9 -18 9 -39 0
-22 4 -42 9 -46 5 -3 9 7 9 22 -1 40 12 75 25 70 7 -2 11 -18 9 -36 -3 -22 0
-31 7 -27 6 4 11 25 11 47 0 27 4 39 14 39 8 0 17 8 19 18 3 9 5 4 4 -13 -2
-24 2 -29 16 -27 12 2 17 -4 17 -22 0 -26 -30 -86 -42 -86 -5 0 -8 9 -8 20 0
12 7 20 16 20 11 0 14 5 10 16 -3 9 -6 20 -6 25 0 5 -4 9 -10 9 -5 0 -10 -9
-10 -19 0 -30 -11 -51 -26 -51 -9 0 -14 -11 -14 -27 0 -31 38 -57 62 -42 10 7
9 9 -4 9 -27 0 -22 19 7 26 18 4 25 13 26 33 1 17 3 20 6 9 2 -10 9 -18 14
-18 12 0 12 17 -1 25 -12 7 -14 45 -2 45 4 0 13 -5 20 -12 9 -9 12 -8 12 4 0
8 -7 21 -15 28 -17 14 -20 40 -5 40 6 0 10 16 10 35 0 19 3 35 8 35 4 0 6 -17
4 -39 -3 -33 -1 -39 20 -44 12 -4 33 -7 46 -7 12 0 22 -4 22 -10 0 -5 -5 -10
-11 -10 -6 0 -9 -7 -5 -15 4 -10 -1 -15 -15 -15 -11 0 -18 -4 -14 -10 3 -5 0
-18 -7 -29 -10 -17 -10 -23 3 -36 12 -12 21 -14 42 -6 15 6 28 16 29 23 0 7 2
18 2 23 1 6 4 10 6 11 19 3 50 27 50 39 0 8 5 15 10 15 6 0 10 -9 10 -21 0
-11 -4 -17 -10 -14 -6 3 -10 -4 -10 -17 l0 -23 19 24 19 24 7 -24 8 -24 9 25
c7 20 11 22 18 10 5 -8 10 -12 12 -10 2 3 12 15 22 27 14 17 16 26 8 36 -9 10
-9 21 1 40 6 15 15 27 20 27 11 0 9 -28 -3 -35 -6 -4 -8 -11 -5 -16 4 -5 17 3
30 19 14 17 20 31 14 38 -5 7 2 18 21 33 23 16 30 18 30 7 0 -8 -9 -18 -20
-21 -28 -9 -25 -20 11 -48 27 -21 29 -25 14 -37 -14 -12 -18 -12 -26 1 -8 12
-12 11 -24 -5 -7 -10 -18 -15 -23 -12 -6 3 -20 -13 -33 -37 -12 -23 -28 -53
-35 -67 -8 -14 -14 -35 -14 -47 0 -19 -6 -23 -29 -23 -24 0 -28 4 -28 25 0 14
3 28 8 31 5 3 9 12 9 21 0 14 -3 14 -20 -2 -21 -19 -28 -75 -10 -75 6 0 10 -9
10 -20 0 -11 7 -20 15 -20 8 0 15 6 15 13 0 13 53 37 83 37 9 0 17 5 17 11 0
5 5 7 10 4 6 -3 10 3 10 15 0 11 11 31 25 44 30 28 32 40 5 31 -14 -4 -20 -2
-20 8 0 18 57 40 65 26 4 -5 11 -6 17 -3 6 4 9 3 6 -2 -2 -5 -10 -23 -17 -40
-7 -18 -22 -34 -33 -37 -15 -4 -19 -11 -15 -27 3 -12 -2 -27 -11 -37 -16 -16
-16 -16 0 -10 10 3 20 2 23 -2 3 -5 15 -7 28 -5 l22 5 -22 -17 c-34 -25 -28
-33 18 -23 23 6 47 8 53 5 6 -2 1 -5 -11 -5 -13 -1 -23 -5 -23 -10 0 -5 -3
-16 -6 -25 -5 -12 1 -16 24 -16 35 0 50 -15 26 -24 -18 -7 -64 18 -64 35 0 6
-11 8 -29 4 -23 -5 -29 -2 -34 14 -3 12 -10 21 -15 21 -6 0 -8 -9 -5 -20 4
-16 0 -20 -21 -20 -14 0 -26 -4 -26 -9 0 -5 25 -8 55 -6 55 3 55 2 53 -24 -2
-20 2 -27 20 -29 12 -2 22 1 22 6 0 5 13 12 29 15 17 4 35 16 42 29 7 12 18
29 26 36 11 11 14 11 19 -2 10 -26 -1 -51 -24 -54 -45 -7 -8 -62 41 -62 29 0
29 1 14 18 -19 21 -22 42 -7 42 6 0 9 3 9 8 -3 18 2 33 9 28 5 -3 10 -29 11
-58 2 -59 10 -68 63 -68 32 0 35 2 31 21 -5 19 -4 20 16 10 18 -10 25 -8 49
16 27 28 27 28 5 31 -13 2 -23 8 -23 14 0 5 7 7 16 4 9 -3 20 -6 26 -6 6 0 7
-8 4 -17 -4 -9 -1 -20 5 -24 8 -4 4 -9 -10 -14 -11 -3 -21 -10 -21 -14 0 -5
-14 -11 -30 -15 -33 -6 -66 -56 -42 -64 7 -2 9 -8 6 -13 -3 -6 5 -7 20 -3 22
5 26 3 27 -17 1 -18 3 -15 9 11 9 38 6 50 -16 50 -8 0 -14 5 -14 10 0 7 6 7
20 0 10 -6 25 -9 32 -8 7 2 14 -7 16 -19 6 -43 20 -23 14 22 -5 45 -4 45 26
45 17 0 34 5 37 10 11 18 34 -8 28 -30 -3 -11 0 -20 6 -20 6 0 11 5 11 10 0 6
5 10 11 10 6 0 19 10 30 23 14 17 18 19 19 6 0 -9 -7 -22 -15 -29 -8 -7 -15
-20 -15 -29 0 -9 -18 -27 -40 -41 -33 -20 -38 -28 -33 -49 4 -17 3 -22 -6 -16
-8 4 -14 -1 -18 -14 -6 -23 -18 -27 -29 -10 -4 8 -9 8 -17 0 -7 -7 -14 -7 -24
0 -9 8 -13 8 -13 0 0 -6 5 -11 10 -11 6 0 10 -7 10 -15 0 -8 -4 -15 -10 -15
-5 0 -10 -7 -10 -16 0 -8 -4 -13 -9 -10 -5 3 -23 -2 -41 -10 -30 -16 -33 -15
-58 8 -26 23 -28 24 -58 8 -18 -9 -29 -21 -26 -29 3 -10 -1 -12 -12 -8 -11 4
-16 1 -17 -11 -1 -9 -5 -2 -9 17 -10 40 -4 61 17 61 8 0 13 5 11 12 -7 19 -21
19 -47 -1 -20 -15 -24 -28 -25 -76 -1 -40 -5 -60 -15 -63 -10 -3 -12 3 -9 28
4 26 3 30 -6 19 -7 -8 -18 -20 -26 -28 -13 -12 -13 -13 2 -8 11 4 18 -1 22
-16 9 -34 7 -79 -3 -73 -14 9 -34 -22 -27 -40 5 -13 9 -14 21 -4 8 7 15 19 15
26 0 8 5 14 10 14 6 0 10 -6 10 -14 0 -8 7 -16 15 -20 18 -7 20 -39 3 -33 -7
2 -19 -3 -26 -12 -10 -12 -15 -13 -18 -3 -8 17 -24 15 -24 -3 0 -8 4 -15 9
-15 5 0 12 -10 15 -22 6 -23 7 -23 22 5 29 53 42 26 18 -37 -4 -10 -1 -16 9
-16 24 0 31 -19 13 -39 -14 -15 -14 -18 4 -31 26 -19 26 -57 0 -65 -15 -5 -19
-12 -14 -30 8 -33 -14 -42 -26 -10 -8 20 -14 24 -33 19 -17 -4 -26 -1 -30 10
-4 9 -14 16 -23 16 -9 0 -23 8 -30 18 -12 15 -13 13 -14 -20 0 -28 -4 -38 -16
-38 -9 0 -14 -6 -11 -12 2 -7 -3 -21 -11 -31 -12 -13 -13 -20 -4 -29 17 -17
15 -65 -3 -72 -11 -4 -14 -13 -9 -30 4 -19 2 -24 -13 -23 -13 2 -17 -4 -15
-22 3 -31 11 -39 21 -22 5 7 14 10 21 6 7 -4 13 1 17 14 3 11 9 19 13 16 12
-7 -26 -81 -45 -89 -21 -8 -30 -7 -31 2 -2 18 -17 42 -27 42 -20 0 -47 -33
-48 -59 -2 -24 -2 -24 -6 -3 -8 39 -21 24 -17 -20 5 -49 -38 -148 -64 -148
-13 0 -12 3 4 14 27 20 7 40 -27 27 -13 -5 -19 -10 -14 -11 6 0 4 -4 -4 -9
-11 -7 -10 -13 5 -35 11 -14 26 -26 34 -26 8 0 0 -9 -17 -20 -36 -22 -41 -40
-18 -64 23 -23 18 -37 -10 -30 -21 5 -25 3 -25 -15 0 -13 -5 -19 -14 -15 -9 3
-19 -4 -26 -17 -11 -20 -10 -21 14 -17 20 4 26 1 26 -12 0 -10 6 -20 13 -23
22 -8 40 9 34 32 -3 12 -1 24 4 27 5 3 9 -13 9 -35 0 -21 3 -48 7 -58 6 -17 5
-17 -13 -1 -14 12 -24 14 -37 6 -15 -8 -19 -6 -24 11 -3 14 -15 21 -37 23 -22
2 -31 8 -30 21 1 9 -4 17 -11 17 -8 0 -11 -8 -8 -19 3 -10 0 -21 -5 -25 -12
-7 -24 37 -16 58 3 9 2 16 -4 16 -6 0 -20 21 -33 48 -12 26 -43 66 -68 90 -41
39 -46 41 -49 23 -5 -30 -13 -26 -50 24 -18 25 -38 45 -46 45 -7 0 -18 10 -24
23 -14 29 -23 189 -12 207 7 10 10 11 10 3 0 -7 5 -13 10 -13 6 0 10 9 10 19
0 14 5 18 21 14 17 -5 19 -2 13 21 -5 22 -3 26 15 26 26 0 38 26 23 50 -8 13
-7 22 3 36 8 11 14 24 15 29 0 6 -4 4 -9 -4 -7 -11 -16 -6 -43 23 -22 24 -42
37 -54 35 -10 -2 -25 0 -32 5 -9 5 -19 1 -28 -10 -13 -18 -14 -17 -8 9 7 31 5
32 -31 15 -23 -10 -28 -8 -63 29 -21 22 -45 43 -53 46 -12 5 -12 7 1 16 19 14
9 14 -26 1 -22 -9 -31 -7 -50 11 -21 19 -23 20 -32 3 -9 -16 -14 -14 -58 21
-47 39 -51 40 -125 40 -70 0 -79 -2 -97 -25 l-21 -25 4 59 c2 33 7 74 11 90 3
17 3 28 -2 23 -8 -8 -43 58 -44 83 0 9 -5 21 -10 26 -10 10 -19 46 -58 224
-11 54 -16 129 -16 265 -1 175 0 190 17 189 22 -2 22 5 0 22 -10 7 -14 16 -10
20 4 5 12 2 17 -6 5 -8 12 -12 15 -8 4 4 -5 24 -19 45 -26 38 -26 38 -6 52 11
7 20 22 20 33 0 17 -3 18 -14 9 -8 -7 -17 -8 -20 -3 -3 6 3 12 14 15 23 6 27
27 5 27 -19 0 -19 9 1 31 17 19 12 55 -6 44 -5 -3 -10 -2 -10 4 0 5 5 13 10
16 6 3 10 24 10 46 0 21 -4 39 -10 39 -18 0 -11 29 12 50 12 11 16 20 10 20
-7 0 -12 7 -12 15 0 8 5 15 10 15 6 0 10 8 10 18 0 29 13 35 22 11 5 -13 4
-27 -2 -34z m157 13 c-3 -8 -6 -5 -6 6 -1 11 2 17 5 13 3 -3 4 -12 1 -19z
m3433 -18 c11 -7 1 -10 -35 -9 -37 0 -45 3 -30 9 27 12 47 12 65 0z m-25 -33
c11 1 34 5 52 8 29 7 33 5 38 -21 3 -16 15 -51 25 -79 11 -27 24 -77 30 -110
18 -108 37 -182 57 -226 41 -88 72 -165 78 -191 6 -23 4 -28 -12 -28 -10 0
-34 -14 -52 -31 -18 -16 -40 -28 -47 -25 -9 4 -14 -2 -14 -15 0 -14 -5 -19
-17 -17 -26 5 -53 -27 -54 -64 l-1 -33 -16 35 -16 35 -4 -30 c-1 -16 -6 -37
-9 -45 -3 -8 -5 -20 -4 -27 2 -16 -16 -26 -24 -13 -3 5 -17 10 -31 10 -21 0
-24 5 -24 35 0 43 -16 46 -25 5 -4 -17 -17 -38 -30 -46 -14 -9 -27 -25 -31
-37 -6 -18 -7 -19 -16 -4 -7 14 -13 15 -29 7 -26 -15 -59 -3 -59 20 0 10 -7
21 -16 24 -11 4 -14 13 -10 31 4 14 2 25 -4 25 -5 0 -10 -4 -10 -10 0 -5 -5
-10 -11 -10 -5 0 -7 5 -4 10 3 6 1 10 -5 10 -6 0 -8 -10 -4 -26 6 -22 4 -25
-12 -22 -11 2 -19 10 -19 18 0 10 -11 15 -33 15 -17 0 -32 3 -32 6 0 11 -47
16 -63 7 -9 -5 -18 -4 -21 1 -4 5 -32 12 -64 16 -31 3 -68 8 -82 10 -14 2 -19
2 -12 -1 6 -3 12 -12 12 -20 0 -12 -4 -13 -22 -3 -13 6 -31 19 -42 28 -10 9
-28 16 -40 16 -15 0 -21 6 -20 22 0 15 -7 24 -25 29 -42 11 -75 11 -88 1 -10
-7 -13 -3 -13 17 0 14 -5 26 -11 26 -5 0 -7 5 -4 10 4 6 16 8 27 4 30 -9 67
14 64 40 -4 40 -36 67 -36 30 0 -8 -4 -12 -10 -9 -15 9 -12 22 11 44 12 11 30
18 42 15 32 -6 48 13 35 42 -16 34 -2 42 25 15 25 -23 57 -20 57 5 0 24 30 28
46 8 13 -18 14 -17 8 11 -10 43 -12 45 -46 38 -28 -6 -30 -4 -23 18 11 37 25
47 31 23 6 -24 54 -31 54 -8 0 8 5 14 10 14 14 0 13 -33 -2 -48 -7 -7 -8 -12
-4 -12 14 0 35 33 36 54 0 26 36 55 60 49 14 -4 20 0 20 11 0 9 5 16 10 16 6
0 15 11 20 25 11 29 49 35 51 8 1 -17 2 -17 6 0 3 11 14 17 31 17 15 0 45 11
67 25 22 13 45 24 50 24 6 0 2 -4 -7 -10 -24 -14 -23 -28 2 -22 24 6 52 47 44
66 -3 9 0 15 8 14 31 -1 48 4 48 13 0 6 -9 10 -19 10 -28 0 -35 16 -18 41 14
20 16 20 27 2 9 -15 10 -12 5 18 -4 28 -2 38 11 43 23 9 34 7 34 -4 0 -5 -9
-10 -20 -10 -21 0 -27 -15 -10 -25 6 -3 10 -1 10 4 0 6 11 11 24 11 18 0 25 7
30 30 5 28 8 30 33 23 16 -4 37 -7 48 -6z m-3055 -114 c-1 -18 -28 -44 -35
-33 -4 6 -1 17 5 25 13 16 30 20 30 8z m150 -37 c0 -2 -7 -9 -15 -16 -13 -11
-14 -10 -9 4 5 14 24 23 24 12z m60 -72 c0 -8 -5 -12 -10 -9 -6 4 -8 11 -5 16
9 14 15 11 15 -7z m1490 -4 c0 -5 -10 -9 -22 -7 -18 2 -24 -4 -26 -26 -2 -15
-7 -25 -12 -22 -10 6 -3 32 13 53 11 14 47 16 47 2z m-1370 -25 c0 -8 -4 -15
-10 -15 -5 0 -7 7 -4 15 4 8 8 15 10 15 2 0 4 -7 4 -15z m-206 -57 c-5 -68
-24 -106 -24 -47 0 18 -3 45 -7 58 -4 16 -3 22 5 17 6 -3 13 3 17 14 11 34 13
23 9 -42z m90 37 c-6 -16 -24 -21 -24 -7 0 11 11 22 21 22 5 0 6 -7 3 -15z
m536 11 c0 -3 -4 -8 -10 -11 -5 -3 -10 -1 -10 4 0 6 5 11 10 11 6 0 10 -2 10
-4z m-430 -20 c0 -3 -4 -8 -10 -11 -5 -3 -10 -1 -10 4 0 6 5 11 10 11 6 0 10
-2 10 -4z m480 0 c0 -3 -4 -8 -10 -11 -5 -3 -10 -1 -10 4 0 6 5 11 10 11 6 0
10 -2 10 -4z m-625 -16 c3 -5 -1 -10 -9 -10 -9 0 -16 5 -16 10 0 6 4 10 9 10
6 0 13 -4 16 -10z m115 1 c0 -12 -20 -25 -27 -18 -7 7 6 27 18 27 5 0 9 -4 9
-9z m1251 -22 c-15 -15 -26 -18 -33 -11 -7 7 -1 15 19 24 36 19 42 13 14 -13z
m-1304 9 c-2 -7 0 -21 5 -31 6 -13 5 -23 -4 -34 -11 -14 -14 -13 -18 12 -5 27
-6 28 -22 11 -26 -26 -24 4 2 32 23 24 44 29 37 10z m509 -13 c4 -8 1 -22 -6
-31 -10 -11 -10 -18 -2 -26 8 -8 14 -4 22 16 6 16 15 24 21 20 8 -4 8 -9 0
-17 -6 -6 -11 -19 -11 -29 0 -23 -22 -23 -42 0 -12 13 -18 64 -9 80 4 8 23 0
27 -13z m193 -15 c-6 -16 -17 -30 -25 -30 -19 0 -18 19 3 42 24 27 33 22 22
-12z m145 -17 c-4 -16 -12 -34 -18 -42 -9 -12 -8 -12 11 -3 12 7 23 22 25 34
3 23 28 38 28 17 0 -7 7 -20 16 -30 9 -10 13 -23 9 -28 -11 -19 -25 -12 -25
14 0 14 -5 25 -11 25 -14 0 -2 -52 13 -61 13 -8 38 0 38 12 0 5 10 5 23 0 12
-4 29 -6 37 -3 12 4 13 3 2 -10 -10 -13 -10 -17 3 -22 15 -5 14 -9 -2 -36 -15
-27 -19 -29 -29 -15 -8 11 -14 13 -19 5 -10 -17 -24 -2 -18 20 6 22 -12 28
-20 8 -4 -8 -6 -7 -6 3 -1 12 -10 16 -30 15 -16 -1 -33 -4 -36 -8 -11 -11 -35
3 -35 20 0 12 -3 13 -12 4 -28 -28 -27 -9 1 27 17 21 31 45 31 53 0 16 9 28
22 28 5 0 5 -12 2 -27z m-108 -31 c-11 -10 -15 4 -8 28 l7 25 3 -23 c2 -13 1
-26 -2 -30z m-286 19 c0 -11 -5 -23 -11 -26 -6 -4 -8 -13 -5 -20 2 -7 -3 -20
-13 -29 -20 -18 -31 -20 -31 -6 0 6 6 10 14 10 15 0 29 51 20 75 -4 10 0 15
10 15 9 0 16 -8 16 -19z m827 -6 c-14 -28 -22 -31 -31 -10 -3 9 0 15 9 15 8 0
15 5 15 10 0 6 4 10 9 10 5 0 4 -11 -2 -25z m-505 -17 c-7 -7 -12 -8 -12 -2 0
14 12 26 19 19 2 -3 -1 -11 -7 -17z m208 7 c0 -8 -7 -15 -15 -15 -16 0 -20 12
-8 23 11 12 23 8 23 -8z m40 -5 c0 -5 -5 -10 -11 -10 -5 0 -7 5 -4 10 3 6 8
10 11 10 2 0 4 -4 4 -10z m406 -20 c8 0 14 -5 14 -11 0 -6 -7 -8 -16 -5 -9 3
-18 6 -20 6 -2 0 -4 8 -3 18 0 10 3 12 6 5 2 -7 11 -13 19 -13z m-1344 -22
c-7 -7 -12 -8 -12 -2 0 14 12 26 19 19 2 -3 -1 -11 -7 -17z m1208 12 c0 -5 -4
-10 -10 -10 -5 0 -10 5 -10 10 0 6 5 10 10 10 6 0 10 -4 10 -10z m-550 -10 c0
-5 -5 -10 -11 -10 -5 0 -7 5 -4 10 3 6 8 10 11 10 2 0 4 -4 4 -10z m680 -11
c0 -10 -51 -30 -61 -24 -15 10 -10 23 9 27 27 6 52 4 52 -3z m-933 -21 c-3 -8
-6 -5 -6 6 -1 11 2 17 5 13 3 -3 4 -12 1 -19z m743 18 c0 -3 -4 -8 -10 -11 -5
-3 -10 -1 -10 4 0 6 5 11 10 11 6 0 10 -2 10 -4z m-483 -38 c-3 -8 -6 -5 -6 6
-1 11 2 17 5 13 3 -3 4 -12 1 -19z m53 13 c0 -12 -20 -25 -27 -18 -7 7 6 27
18 27 5 0 9 -4 9 -9z m1307 -13 c-3 -8 -6 -5 -6 6 -1 11 2 17 5 13 3 -3 4 -12
1 -19z m-1747 -25 c0 -20 -3 -24 -11 -16 -7 7 -9 19 -6 27 10 24 17 19 17 -11z
m226 0 c-10 -10 -19 5 -10 18 6 11 8 11 12 0 2 -7 1 -15 -2 -18z m744 19 c0
-14 -11 -21 -26 -15 -21 8 -17 23 6 23 11 0 20 -4 20 -8z m667 -19 c-3 -2 -17
-6 -31 -7 -22 -3 -24 -1 -15 16 8 15 14 16 30 7 12 -6 18 -13 16 -16z m-1262
0 c5 -10 7 -28 6 -40 -1 -12 5 -26 14 -31 16 -8 16 -9 1 -15 -10 -4 -15 -3
-12 2 3 4 -3 16 -14 26 -11 10 -20 31 -20 47 0 31 14 37 25 11z m-161 -51 c-5
-22 -12 -32 -25 -32 -11 0 -19 5 -19 10 0 6 5 10 10 10 6 0 15 12 21 26 13 35
21 26 13 -14z m316 20 c0 -10 -3 -22 -7 -26 -5 -4 -8 -13 -8 -18 0 -6 -4 -13
-10 -15 -8 -2 -12 35 -6 70 2 16 31 6 31 -11z m80 -24 c0 -6 11 -1 24 11 17
16 26 19 31 11 11 -17 -20 -44 -54 -46 -25 -2 -30 2 -33 26 -4 25 -2 28 14 19
10 -5 18 -15 18 -21z m970 10 c0 -10 -2 -18 -5 -18 -2 0 -9 8 -14 18 -8 14 -6
19 5 19 7 0 14 -9 14 -19z m-1230 -33 c0 -8 -4 -15 -9 -15 -13 0 -22 16 -14
24 11 11 23 6 23 -9z m320 -25 c0 -5 -2 -10 -4 -10 -3 0 -8 5 -11 10 -3 6 -1
10 4 10 6 0 11 -4 11 -10z m944 -16 c8 -21 3 -26 -18 -18 -20 8 -21 34 -2 34
8 0 17 -7 20 -16z m-1229 -4 c-3 -5 -10 -10 -16 -10 -5 0 -9 5 -9 10 0 6 7 10
16 10 8 0 12 -4 9 -10z m1150 0 c3 -5 -1 -10 -10 -10 -9 0 -13 5 -10 10 3 6 8
10 10 10 2 0 7 -4 10 -10z m-1021 -45 c-4 -8 -8 -15 -10 -15 -2 0 -4 7 -4 15
0 8 4 15 10 15 5 0 7 -7 4 -15z m146 -25 c0 -5 -9 -10 -20 -10 -11 0 -20 5
-20 10 0 6 9 10 20 10 11 0 20 -4 20 -10z m896 -15 c-10 -7 -15 -18 -11 -24 3
-6 -1 -11 -9 -11 -19 0 -20 5 -6 31 6 10 18 19 28 19 15 -1 15 -2 -2 -15z
m-946 -49 c-8 -8 -16 -5 -31 13 -29 35 -23 45 12 20 23 -16 28 -24 19 -33z
m1066 -1 c7 -30 1 -40 -19 -32 -10 3 -13 15 -10 31 7 33 21 33 29 1z m-1095
-7 c23 -28 24 -38 4 -38 -13 0 -35 36 -35 56 0 10 13 2 31 -18z m1002 2 c3
-11 2 -20 -3 -20 -4 0 -10 9 -13 20 -3 11 -2 20 3 20 4 0 10 -9 13 -20z m37
10 c0 -5 -4 -10 -10 -10 -5 0 -10 5 -10 10 0 6 5 10 10 10 6 0 10 -4 10 -10z
m-970 -10 c0 -5 -5 -10 -11 -10 -5 0 -7 5 -4 10 3 6 8 10 11 10 2 0 4 -4 4
-10z m643 -8 c-13 -2 -23 -9 -23 -16 0 -7 -6 -20 -13 -30 -12 -16 -13 -14 -9
17 3 27 9 37 26 39 11 2 26 2 31 -1 6 -4 0 -7 -12 -9z m197 3 c0 -8 -4 -15
-10 -15 -5 0 -10 7 -10 15 0 8 5 15 10 15 6 0 10 -7 10 -15z m-330 -5 c0 -5
-4 -10 -10 -10 -5 0 -10 5 -10 10 0 6 5 10 10 10 6 0 10 -4 10 -10z m138 -52
c-5 -32 -28 -35 -28 -4 0 17 5 26 16 26 10 0 14 -7 12 -22z m80 12 c23 -1 24
-2 10 -11 -10 -5 -15 -16 -12 -24 4 -10 0 -15 -11 -15 -12 0 -15 5 -10 20 5
16 2 20 -14 20 -12 0 -21 5 -21 11 0 6 7 8 16 5 9 -3 28 -6 42 -6z m-308 -15
c0 -12 -19 -12 -23 0 -4 9 -1 12 9 8 7 -3 14 -7 14 -8z m380 5 c0 -5 -2 -10
-4 -10 -3 0 -8 5 -11 10 -3 6 -1 10 4 10 6 0 11 -4 11 -10z m-276 -22 c-4 -21
-4 -21 6 1 l11 25 14 -28 c17 -33 12 -46 -18 -46 -15 0 -18 -3 -9 -8 9 -6 4
-16 -18 -37 -32 -31 -49 -29 -29 3 10 16 9 24 -9 50 -24 32 -30 54 -10 34 18
-18 38 -14 38 8 0 11 6 20 14 20 9 0 13 -8 10 -22z m926 7 c0 -8 -4 -15 -10
-15 -5 0 -10 7 -10 15 0 8 5 15 10 15 6 0 10 -7 10 -15z m420 -5 c0 -5 -4 -10
-10 -10 -5 0 -10 5 -10 10 0 6 5 10 10 10 6 0 10 -4 10 -10z m198 -2 c-3 -7
-13 -15 -24 -17 -16 -3 -17 -1 -5 13 16 19 34 21 29 4z m-1806 -57 c3 -23 0
-31 -15 -35 -13 -3 -17 0 -13 11 3 8 6 23 6 34 0 30 17 22 22 -10z m1547 -2
c-22 -14 -33 -10 -19 6 7 8 17 12 22 9 6 -4 5 -10 -3 -15z m235 -14 c-4 -8 -8
-15 -10 -15 -2 0 -4 7 -4 15 0 8 4 15 10 15 5 0 7 -7 4 -15z m-1654 -5 c0 -5
-9 -10 -21 -10 -11 0 -17 5 -14 10 3 6 13 10 21 10 8 0 14 -4 14 -10z m1375
-9 c3 -5 1 -12 -5 -16 -5 -3 -10 1 -10 9 0 18 6 21 15 7z m53 -8 c-4 -22 -22
-20 -26 1 -2 10 3 16 13 16 10 0 15 -7 13 -17z m-1292 -28 c-11 -8 -24 -15
-30 -15 -5 0 -1 7 10 15 10 8 24 14 29 14 6 0 1 -6 -9 -14z m1258 -27 c-13
-58 -6 -135 17 -183 12 -25 24 -44 28 -42 3 2 20 9 38 16 22 9 33 20 35 37 4
36 23 29 23 -8 0 -27 -4 -34 -25 -36 -32 -5 -51 -31 -44 -61 5 -26 74 -120 87
-121 4 0 7 9 7 21 0 36 23 15 46 -42 59 -150 110 -271 140 -337 19 -40 34 -75
34 -77 0 -3 11 -22 24 -43 22 -35 30 -39 89 -50 35 -7 124 -12 197 -12 223 0
371 -39 610 -161 224 -115 252 -140 412 -379 280 -418 425 -659 723 -1205 12
-22 47 -85 77 -140 30 -55 83 -154 118 -220 34 -66 73 -138 85 -160 34 -60
229 -423 261 -486 15 -30 73 -137 129 -239 102 -185 169 -313 265 -510 29 -58
73 -141 100 -185 85 -144 148 -273 160 -331 20 -96 -11 -175 -144 -371 -42
-62 -76 -116 -76 -121 0 -26 -230 -227 -325 -285 -198 -121 -243 -145 -420
-222 -103 -45 -154 -65 -397 -151 -551 -197 -1098 -277 -1285 -189 -46 22 -68
55 -99 148 -38 117 -64 177 -91 215 -20 27 -23 39 -18 76 5 34 4 44 -9 49 -22
9 -29 -8 -17 -46 35 -117 50 -310 23 -306 -19 3 -23 -3 -12 -16 10 -12 10 -19
2 -27 -7 -7 -12 -20 -12 -30 0 -10 -7 -18 -15 -18 -8 0 -15 -7 -15 -16 0 -9
-21 -36 -46 -60 -41 -41 -46 -43 -51 -25 -6 25 -23 18 -23 -10 0 -10 -4 -19
-10 -19 -5 0 -10 -12 -10 -27 0 -16 -7 -37 -15 -47 -8 -11 -15 -26 -15 -33 0
-18 -57 -72 -89 -84 -29 -12 -81 -2 -82 14 0 7 -4 4 -7 -6 -6 -14 -13 -8 -36
32 -17 29 -44 57 -63 68 -33 17 -35 17 -94 -4 l-60 -22 -52 23 c-50 23 -60 24
-337 24 l-285 1 -12 28 c-6 15 -19 62 -28 103 -9 41 -50 212 -91 380 -41 168
-93 379 -115 470 -59 243 -130 525 -134 528 -1 2 -63 -6 -138 -17 -156 -23
-198 -40 -250 -105 -42 -50 -103 -78 -220 -100 -55 -11 -74 -19 -93 -42 -13
-16 -23 -32 -24 -36 -1 -19 195 4 242 28 18 9 59 41 90 70 66 63 76 67 197 88
110 19 150 20 155 4 2 -7 12 -47 21 -88 9 -41 39 -165 65 -275 27 -110 61
-254 75 -320 14 -66 43 -192 65 -280 49 -205 94 -424 87 -431 -2 -3 -17 -6
-31 -7 -35 -3 -38 -21 -3 -25 25 -3 53 -33 41 -44 -2 -3 10 -8 27 -12 26 -5
30 -8 19 -21 -7 -8 -16 -12 -21 -9 -17 10 -30 -6 -19 -26 8 -15 5 -23 -15 -38
-15 -12 -23 -26 -19 -35 3 -8 -2 -17 -11 -21 -11 -4 -14 -13 -10 -25 5 -16 -2
-19 -47 -26 -29 -4 -45 -10 -35 -12 26 -7 20 -27 -12 -41 -29 -13 -47 -47 -30
-58 15 -9 10 -34 -6 -34 -8 0 -15 -6 -15 -12 0 -9 -3 -9 -9 1 -15 23 -37 -7
-44 -59 -6 -39 -5 -43 7 -27 18 24 24 22 28 -10 3 -25 7 -28 36 -25 31 3 45
-12 20 -21 -8 -3 -2 -9 13 -15 15 -6 38 -21 52 -34 39 -36 40 -36 171 -107 26
-14 57 -31 69 -38 16 -9 25 -9 41 2 17 13 22 12 38 -2 23 -20 23 -34 1 -26
-11 4 -14 3 -9 -5 10 -16 163 -92 185 -92 9 0 50 -12 91 -26 41 -14 95 -32
119 -40 24 -7 49 -17 55 -22 6 -4 25 -9 41 -10 17 -2 42 -8 57 -14 16 -6 37
-8 47 -5 11 3 22 0 24 -6 2 -6 62 -11 159 -13 85 -2 204 -11 264 -21 60 -9
123 -16 139 -15 50 2 225 20 315 31 46 6 117 11 158 11 55 0 74 4 78 15 4 8
15 15 26 15 12 0 53 9 92 21 47 14 84 19 113 15 23 -3 45 -1 48 4 8 12 77 -21
72 -34 -2 -6 -13 -10 -25 -9 -13 2 -22 -5 -25 -18 -3 -11 -15 -23 -27 -26 -12
-3 -19 -11 -16 -19 7 -18 -10 -27 -31 -16 -28 15 -107 -13 -121 -42 -6 -15
-23 -27 -42 -31 -17 -4 -42 -18 -55 -31 -31 -31 -55 -32 -47 -1 5 20 4 21 -11
8 -9 -7 -17 -21 -17 -30 0 -14 -2 -14 -10 -1 -9 14 -24 8 -26 -11 -1 -5 -2
-13 -3 -19 0 -5 -10 -10 -21 -10 -11 0 -20 5 -20 10 0 6 -7 10 -15 10 -18 0
-20 -17 -3 -22 6 -2 8 -10 4 -16 -9 -15 -26 -16 -26 -1 0 18 -40 48 -55 42 -8
-3 -13 -10 -12 -16 1 -7 -5 -12 -13 -12 -8 0 -14 5 -13 11 1 6 -14 14 -34 17
-27 5 -39 2 -49 -10 -9 -13 -15 -15 -26 -6 -9 8 -19 9 -28 3 -10 -6 -22 -4
-36 5 -20 13 -22 12 -27 -5 -4 -15 -13 -18 -55 -17 -28 1 -53 5 -57 9 -8 8
-93 -20 -101 -33 -8 -14 -24 -10 -24 6 0 8 -5 15 -11 15 -6 0 -9 -7 -5 -15 8
-21 -25 -37 -39 -19 -9 12 -16 12 -52 -2 -24 -10 -43 -23 -43 -31 0 -20 -47
-35 -70 -23 -11 6 -31 8 -45 4 -14 -3 -32 -1 -40 6 -9 8 -28 9 -55 5 -40 -7
-57 7 -24 19 24 9 10 19 -15 11 -12 -3 -19 -10 -16 -15 10 -16 -8 -40 -30 -40
-18 0 -22 4 -18 21 5 18 2 19 -23 13 -16 -4 -34 -11 -41 -16 -15 -12 -33 -2
-34 20 0 14 -2 14 -6 2 -9 -24 -22 -27 -58 -16 -40 12 -48 31 -10 22 14 -4 25
-3 25 1 -1 11 -29 60 -30 50 0 -10 -53 18 -74 38 -9 9 -21 13 -27 9 -8 -4 -7
-9 2 -15 24 -15 -4 -10 -35 6 -16 9 -32 12 -35 9 -3 -4 0 -9 7 -11 22 -8 13
-33 -13 -33 -18 0 -30 -10 -44 -37 -11 -21 -20 -33 -21 -28 0 16 -35 34 -49
25 -9 -5 -5 -15 15 -35 29 -29 19 -50 -12 -24 -20 16 -42 20 -50 8 -3 -5 -13
-9 -22 -9 -10 0 -28 -13 -41 -29 -20 -23 -30 -29 -51 -24 -19 3 -29 0 -33 -11
-4 -9 -11 -16 -17 -16 -6 0 -9 4 -6 8 3 5 -4 26 -15 46 -11 21 -18 40 -15 43
8 8 26 -7 26 -21 0 -22 29 -41 42 -28 7 7 6 17 -6 33 -18 26 -21 43 -6 34 15
-9 60 25 60 46 0 25 -20 24 -27 -1 -7 -26 -27 -21 -31 7 -4 28 -31 38 -47 17
-11 -16 -12 -16 -18 0 -9 23 -44 20 -52 -5 -5 -16 -10 -18 -18 -10 -9 9 -4 18
17 36 l29 25 -36 0 c-21 0 -37 5 -37 10 0 6 -6 10 -14 10 -8 0 -16 6 -19 14
-8 21 -67 14 -80 -9 -7 -11 -18 -20 -24 -21 -29 -2 -33 -5 -33 -24 0 -29 -30
-72 -47 -66 -7 3 -26 0 -41 -6 -60 -24 -113 -15 -83 15 17 17 13 29 -9 22 -16
-5 -20 -2 -20 14 0 12 -4 21 -10 21 -5 0 -10 -4 -10 -9 0 -5 -3 -23 -6 -40 -5
-25 -3 -31 11 -31 9 0 15 -6 12 -12 -2 -8 -17 -12 -38 -10 -33 3 -101 10 -107
11 -1 1 7 11 18 24 20 21 22 21 34 5 7 -10 23 -18 34 -18 21 0 21 0 -1 23 -31
33 -54 39 -82 21 -21 -14 -25 -14 -43 6 -17 18 -24 20 -41 11 -28 -15 -27 -31
2 -31 20 -1 20 -2 -7 -16 -20 -11 -31 -13 -39 -5 -6 6 -26 11 -44 11 -18 0
-33 4 -33 9 0 22 -33 19 -55 -5 -16 -17 -30 -24 -42 -20 -13 4 -19 1 -20 -12
-2 -21 49 -24 68 -4 16 15 46 16 55 0 11 -18 -27 -40 -60 -34 -16 4 -35 1 -42
-5 -9 -7 -18 -6 -34 3 -17 11 -22 11 -30 -2 -8 -12 -10 -10 -10 8 0 12 -8 26
-17 29 -9 4 -25 15 -35 25 -26 26 -35 23 -46 -19 l-9 -38 -12 32 c-16 41 -39
51 -34 15 4 -23 3 -24 -7 -9 -12 19 -46 23 -52 6 -3 -9 -10 -9 -27 0 -12 7
-30 11 -39 9 -12 -3 -8 -8 16 -18 37 -17 42 -30 11 -30 -11 0 -29 10 -39 22
-15 20 -20 21 -35 8 -14 -12 -18 -12 -25 1 -8 11 -13 12 -30 2 -26 -17 -31
-16 -28 3 2 9 -6 21 -17 28 -11 6 -31 22 -44 35 -19 20 -26 22 -42 13 -12 -8
-20 -8 -25 -1 -4 7 -13 4 -25 -7 -19 -17 -20 -17 -25 3 -9 32 -34 17 -34 -20
0 -17 -3 -27 -7 -24 -3 4 -6 20 -5 37 1 31 1 31 -70 45 -10 1 -22 -3 -29 -11
-15 -18 -58 -18 -78 0 -14 12 -24 11 -75 -4 -33 -11 -63 -17 -68 -14 -4 3 -8
-3 -8 -13 0 -35 -19 -43 -56 -22 -43 24 -48 24 -41 -1 3 -11 1 -23 -5 -26 -6
-4 -6 -9 2 -14 7 -4 9 -13 6 -19 -10 -16 -36 -13 -36 4 0 8 -4 15 -10 15 -5 0
-10 -4 -10 -10 0 -15 -21 -12 -34 6 -16 21 -45 8 -39 -17 3 -11 0 -19 -6 -19
-7 0 -11 8 -9 17 2 14 -7 17 -52 20 -51 4 -75 17 -64 35 3 5 9 6 14 3 5 -3 11
-1 15 5 13 21 -26 22 -46 1 -11 -11 -26 -21 -34 -21 -7 0 -16 -6 -19 -12 -5
-10 -7 -10 -12 0 -3 6 -19 12 -35 12 -16 0 -29 5 -29 10 0 6 -9 10 -20 10 -14
0 -20 -7 -20 -22 0 -17 -3 -19 -9 -9 -5 7 -6 22 -3 34 4 16 2 19 -12 14 -49
-19 -64 -18 -79 3 -15 22 -15 22 -22 -9 -10 -47 -20 -45 -35 9 -8 30 -19 50
-28 50 -10 0 -12 -8 -7 -30 7 -34 -9 -42 -18 -9 -4 15 -11 19 -25 15 -13 -4
-22 -1 -26 9 -3 9 -18 15 -36 15 -33 0 -40 -14 -12 -24 9 -3 28 -13 41 -20
l23 -14 -26 -17 c-29 -19 -46 -14 -27 8 8 11 8 17 -1 25 -18 14 -70 18 -88 7
-43 -28 -55 -31 -80 -21 -14 6 -28 15 -32 20 -4 6 -12 5 -21 -3 -12 -9 -16 -9
-19 1 -5 13 -14 11 -95 -19 -7 -3 -13 2 -13 11 0 18 -15 21 -25 6 -4 -6 -15
-8 -26 -5 -13 4 -21 1 -26 -11 -4 -10 -2 -19 5 -22 7 -2 12 -11 11 -20 0 -11
-2 -12 -6 -4 -2 6 -8 10 -13 7 -4 -3 -11 7 -14 21 -6 24 -9 25 -24 11 -9 -8
-22 -12 -29 -10 -6 2 -14 -1 -18 -6 -3 -7 2 -11 14 -11 31 0 34 -17 3 -23 -17
-4 -31 -1 -38 9 -18 23 -57 17 -83 -15 -24 -29 -51 -32 -51 -5 0 8 -9 14 -20
14 -11 0 -20 -7 -20 -15 0 -23 -31 -18 -38 7 l-5 22 -8 -22 c-5 -13 -17 -22
-29 -22 -11 0 -20 -5 -20 -11 0 -7 -8 -9 -22 -4 -13 4 -34 6 -46 6 -16 -1 -26
6 -29 19 -6 21 -18 26 -28 11 -3 -6 3 -14 12 -20 16 -9 14 -11 -13 -21 -18 -6
-34 -20 -37 -31 -6 -21 -42 -26 -51 -6 -3 9 -9 7 -19 -6 -14 -17 -16 -17 -51
1 -25 13 -32 22 -24 30 17 17 1 30 -37 29 -22 -1 -35 -6 -35 -14 0 -8 -7 -16
-15 -19 -8 -4 -15 -13 -15 -21 0 -23 -25 -9 -28 15 -2 15 4 25 22 34 29 13 34
33 11 42 -9 3 -21 -4 -31 -19 -21 -32 -38 -32 -30 -1 8 33 -6 40 -33 15 -12
-11 -26 -17 -31 -14 -17 10 -11 25 10 25 24 0 24 1 7 32 -10 21 -18 24 -57 21
-25 -2 -46 -8 -48 -13 -6 -18 -22 -10 -32 15 -6 15 -17 25 -30 25 -23 0 -38
43 -21 63 8 11 0 13 -42 12 -29 -1 -60 -6 -71 -10 -13 -6 -21 -3 -28 8 -14 26
-33 20 -51 -15 -10 -18 -15 -24 -12 -12 5 18 1 20 -35 18 -47 -2 -61 -11 -40
-24 13 -8 12 -10 -3 -10 -10 0 -20 7 -24 16 -5 15 -7 15 -15 1 -5 -9 -15 -14
-24 -10 -13 5 -13 7 0 22 9 10 13 26 9 39 -5 22 -23 31 -23 12 0 -9 -71 -84
-74 -78 0 2 -7 13 -13 25 -17 30 -16 43 2 43 9 0 12 6 9 15 -5 11 -10 13 -19
5 -6 -5 -15 -7 -18 -3 -13 12 -7 23 13 23 11 0 20 6 20 13 0 23 -23 37 -63 37
-30 0 -40 -4 -44 -20 -7 -25 -40 -26 -48 -1 -3 11 -12 22 -20 25 -8 3 -15 12
-15 21 0 8 -7 15 -15 15 -18 0 -20 -27 -2 -33 6 -2 9 -8 5 -12 -4 -4 -14 -2
-23 5 -13 11 -15 7 -16 -26 l-1 -39 -13 30 c-8 17 -12 38 -9 48 6 18 -12 23
-35 8 -11 -7 -11 -15 -2 -41 14 -41 14 -40 -4 -40 -8 0 -15 5 -15 10 0 6 -11
10 -25 10 -18 0 -23 -4 -19 -15 8 -19 -26 -21 -44 -3 -10 10 -17 10 -33 -1
-15 -9 -24 -10 -32 -2 -8 8 -6 11 6 11 9 0 17 5 17 10 0 6 -9 10 -20 10 -11 0
-23 7 -26 15 -7 17 -40 20 -49 5 -3 -6 -17 -10 -30 -10 -17 0 -25 -6 -27 -22
-2 -13 -11 -24 -21 -26 -14 -3 -18 2 -15 20 2 16 -1 22 -11 20 -22 -5 -62 20
-71 44 -7 17 -17 22 -44 22 -20 0 -36 -5 -36 -12 0 -6 -7 -3 -14 7 -14 18 -61
19 -111 3 -15 -5 -14 -4 2 5 13 7 23 16 23 20 0 14 -59 6 -64 -8 -3 -8 -10
-11 -16 -8 -15 9 -12 25 5 25 18 0 18 1 2 33 l-13 25 -22 -23 c-12 -13 -22
-28 -22 -35 0 -10 -4 -9 -16 1 -14 11 -14 13 0 21 45 25 -18 31 -66 6 -13 -6
-18 -5 -18 6 0 19 -60 40 -74 26 -10 -10 3 -14 31 -11 7 1 13 -8 13 -19 0 -12
-4 -19 -9 -15 -5 3 -12 1 -16 -5 -8 -14 -48 7 -42 23 6 18 -24 42 -52 42 -20
0 -26 5 -26 25 0 21 -5 26 -31 28 -25 2 -33 -1 -37 -17 -8 -32 -37 -26 -38 7
-1 16 -3 20 -6 10 -3 -12 -14 -18 -33 -18 -16 0 -32 -4 -35 -10 -3 -5 -15 -10
-26 -10 -14 0 -19 7 -19 26 0 23 -3 25 -25 20 -18 -5 -28 -1 -37 14 -18 28
-28 25 -28 -9 0 -30 -22 -57 -39 -47 -5 4 -7 23 -4 44 7 45 62 102 99 102 13
0 24 5 24 10 0 6 6 10 14 10 8 0 16 10 18 22 3 21 4 21 20 4 17 -16 18 -16 18
-1 0 12 5 15 17 11 10 -4 25 2 39 15 13 12 30 19 38 16 25 -10 44 2 39 24 -4
13 0 19 11 19 11 0 16 -9 16 -27 l0 -26 24 22 c20 19 28 21 46 11 16 -9 25 -9
36 1 10 8 14 8 14 0 0 -6 15 -17 33 -25 27 -11 34 -11 48 0 8 8 21 14 27 14 7
0 12 7 12 15 0 8 -5 15 -12 15 -9 0 -9 3 1 13 10 10 16 8 31 -11 21 -26 36
-28 44 -7 8 22 26 18 26 -5 0 -27 16 -25 45 4 l25 25 19 -25 c10 -13 24 -24
29 -24 6 0 15 -7 20 -17 7 -11 18 -14 39 -10 26 5 30 2 41 -25 6 -16 15 -27
20 -24 15 9 71 -14 66 -27 -7 -19 13 -40 31 -34 9 4 14 11 10 17 -6 10 15 50
28 50 5 0 5 -9 2 -20 -5 -14 -2 -20 9 -20 9 0 16 -4 16 -10 0 -5 -7 -10 -15
-10 -23 0 -18 -16 10 -28 39 -18 43 -15 39 33 -1 25 1 45 6 45 5 0 15 3 24 6
11 4 16 0 16 -14 0 -11 -8 -23 -17 -26 -15 -6 -15 -8 -3 -16 12 -8 13 -13 3
-30 -7 -11 -13 -22 -13 -25 0 -10 36 -5 47 6 8 8 14 6 22 -9 6 -10 7 -22 4
-26 -3 -3 2 -6 12 -6 15 0 17 6 12 35 -4 27 -2 35 9 35 11 0 13 -7 8 -26 -8
-30 12 -49 33 -33 16 14 32 3 43 -27 11 -27 40 -33 40 -8 0 9 9 18 20 21 26 7
25 17 -2 36 -16 11 -18 16 -8 16 39 1 77 -63 45 -75 -8 -4 -15 -12 -15 -20 0
-18 38 -13 50 6 5 8 19 15 32 15 19 0 23 5 21 28 -1 21 3 27 18 27 16 0 18 -5
13 -26 -7 -27 7 -44 35 -44 11 0 11 3 1 15 -7 9 -10 18 -6 22 3 4 12 -1 19 -9
21 -28 104 -50 145 -39 39 11 59 10 79 -2 6 -4 15 -2 18 4 4 6 18 8 30 5 25
-6 43 8 25 19 -13 8 -13 25 1 25 6 0 26 -7 45 -16 37 -18 45 -43 15 -51 -11
-3 -21 -13 -24 -24 -3 -13 -11 -17 -21 -13 -12 4 -16 0 -16 -15 0 -23 23 -28
40 -9 6 7 18 22 28 34 9 11 31 24 47 28 19 4 25 3 16 -2 -9 -6 -10 -12 -3 -16
6 -4 8 -14 5 -22 -4 -10 2 -17 16 -21 11 -3 21 -10 22 -17 0 -6 4 -2 8 9 5 11
5 25 1 30 -14 17 1 64 22 71 24 7 36 -2 20 -18 -15 -15 -16 -58 -2 -58 6 0 10
7 10 15 0 18 1 18 36 5 39 -15 58 -6 42 19 -16 26 -8 33 44 38 24 3 50 11 59
19 20 18 39 18 39 -1 0 -18 21 -20 38 -3 9 9 12 8 12 -5 0 -9 -5 -17 -12 -17
-9 0 -9 -3 0 -12 19 -19 44 8 29 32 -16 27 -2 36 30 19 20 -11 27 -11 30 -1 3
6 9 12 14 12 4 0 6 -7 3 -15 -5 -11 1 -15 24 -15 17 0 42 -5 56 -11 19 -9 32
-9 56 1 22 9 27 15 19 21 -7 4 -21 3 -30 -2 -47 -24 -43 6 7 60 20 21 24 23
24 8 0 -22 19 -22 49 0 24 16 24 16 19 -10 -3 -15 -1 -24 4 -21 5 3 15 1 23
-6 7 -6 24 -12 37 -14 13 -1 30 -6 38 -11 10 -6 12 -4 7 7 -7 19 22 48 46 48
21 0 21 -7 2 -26 -26 -27 -19 -47 14 -41 19 4 33 1 41 -8 15 -18 31 -19 29 -2
-6 49 10 48 41 -3 22 -36 59 -58 47 -27 -20 48 -22 46 38 40 50 -4 59 -2 72
16 18 27 33 18 33 -20 0 -18 4 -28 10 -24 6 4 8 15 5 26 -4 10 -2 19 3 19 5 0
12 -9 15 -19 3 -11 13 -20 23 -20 11 1 29 -3 42 -6 19 -6 24 -3 29 14 3 11 11
21 18 21 8 0 11 -8 8 -20 -4 -15 0 -20 16 -20 16 0 21 6 21 24 0 14 4 28 10
31 5 3 7 0 4 -8 -3 -8 9 -23 30 -38 19 -13 32 -27 30 -31 -7 -11 8 -10 26 2
13 9 13 11 0 20 -8 5 -21 10 -27 10 -7 0 -13 5 -13 10 0 16 37 12 44 -5 3 -8
16 -15 29 -15 13 0 28 -5 34 -11 13 -13 80 -14 113 -1 17 6 37 5 64 -4 21 -8
39 -14 41 -14 1 0 -1 20 -5 45 -7 44 -5 55 12 55 4 0 6 -17 3 -39 -3 -29 0
-42 15 -56 11 -10 26 -15 35 -11 9 3 24 -3 36 -15 11 -11 23 -18 26 -15 10 10
-7 38 -27 43 -23 6 -25 14 -9 30 11 11 43 1 59 -18 11 -12 38 -17 51 -8 11 7
9 9 -8 9 -25 0 -40 16 -21 22 20 7 88 -24 99 -44 8 -14 14 -16 29 -8 10 5 30
10 44 10 14 0 28 4 31 10 3 5 -3 10 -13 10 -11 0 -22 7 -26 15 -4 11 2 15 25
15 17 0 28 -4 25 -9 -9 -15 53 -36 67 -22 8 8 2 11 -23 12 -31 2 -32 3 -7 6
16 3 27 11 27 20 0 12 -7 14 -35 10 -19 -3 -37 -2 -40 3 -3 5 70 7 172 5 98
-2 199 -4 226 -5 38 0 47 -3 47 -17 1 -17 1 -17 13 -1 13 17 28 16 105 -7 13
-5 22 -3 22 3 0 6 17 11 38 10 20 0 55 5 78 11 22 6 64 15 92 21 52 10 209 67
275 101 42 21 107 77 107 92 0 5 -15 7 -35 4 -37 -6 -48 10 -21 32 14 12 46 5
46 -10 0 -26 44 -1 101 57 35 37 79 78 97 92 17 13 32 28 32 33 0 5 -33 6 -73
3 -53 -5 -88 -2 -129 10 -82 23 -121 20 -292 -23 -202 -51 -208 -55 -247 -138
-18 -39 -22 -41 -44 -33 -16 6 -35 6 -52 -1 -33 -12 -45 -2 -58 54 l-11 42
-99 3 c-107 4 -282 -14 -301 -29 -8 -6 -10 -26 -6 -51 3 -29 2 -39 -6 -34 -6
4 -17 -2 -24 -14 -7 -11 -18 -20 -25 -20 -7 0 -16 -8 -22 -18 -17 -30 -32 1
-39 79 l-7 73 -134 33 c-74 17 -146 33 -160 35 l-26 3 1 -95 c0 -52 3 -124 5
-160 4 -61 3 -65 -18 -68 -24 -4 -35 26 -48 127 -7 62 -37 145 -61 172 -30 33
-72 33 -164 -1 -212 -79 -238 -83 -309 -45 -25 13 -81 39 -125 56 -60 25 -91
45 -134 87 -51 51 -56 54 -68 37 -15 -20 -35 -107 -36 -157 l-2 -33 -15 38
c-9 20 -23 39 -33 42 -9 3 -23 20 -31 38 -9 18 -25 37 -35 44 -33 20 -100 246
-106 359 -2 28 -7 58 -12 65 -5 8 -12 41 -16 74 -16 132 -20 150 -35 162 -11
9 -14 22 -10 47 3 21 1 36 -6 39 -6 2 -12 16 -13 33 -11 118 -18 165 -25 170
-5 3 -9 40 -9 82 0 41 -7 119 -16 171 -24 145 -23 143 -39 137 -9 -3 -15 0
-15 8 0 8 7 16 15 20 15 5 20 42 9 70 -8 22 -40 20 -80 -5 -28 -17 -34 -27
-34 -57 -1 -49 -16 -123 -26 -131 -11 -7 -31 -38 -43 -66 -5 -11 -18 -29 -30
-39 -15 -14 -18 -23 -11 -31 7 -9 4 -17 -14 -28 -13 -9 -24 -26 -25 -39 -1
-45 -5 -58 -17 -58 -6 0 -15 -12 -19 -27 -4 -19 -9 -23 -15 -14 -6 10 -9 8
-15 -8 -3 -11 -11 -21 -16 -21 -5 0 -9 -15 -8 -32 0 -27 2 -30 9 -13 8 20 8
20 16 1 5 -13 3 -21 -4 -24 -7 -2 -12 -8 -12 -14 0 -6 7 -7 16 -4 23 9 9 -26
-26 -64 -19 -20 -30 -26 -34 -18 -3 10 -8 8 -16 -4 -6 -10 -20 -18 -30 -18
-11 0 -20 -7 -20 -15 0 -9 9 -15 25 -15 14 0 25 -2 25 -5 0 -12 -36 -45 -50
-45 -19 -1 -50 -24 -50 -38 0 -5 -12 -13 -26 -16 -20 -5 -23 -10 -14 -21 9
-10 3 -19 -25 -40 -25 -20 -34 -33 -30 -46 4 -11 -2 -23 -17 -33 -12 -9 -18
-16 -13 -16 6 0 6 -3 0 -8 -6 -4 -23 -22 -39 -41 -25 -32 -26 -36 -11 -47 19
-14 14 -18 -46 -38 -147 -49 -410 -18 -709 84 -171 59 -351 137 -492 215 -44
25 -82 45 -83 45 -11 0 -252 149 -339 210 -12 8 -43 29 -69 45 l-46 30 0 540
0 540 37 57 c221 339 252 389 363 600 48 92 116 212 150 265 109 172 209 343
278 478 94 182 369 619 516 819 115 157 260 334 382 468 35 38 55 71 63 100
22 89 35 123 70 177 52 80 115 137 190 173 58 28 75 32 160 33 77 1 103 6 137
23 24 12 98 43 165 68 117 44 162 55 358 89 169 29 237 43 334 69 54 14 122
26 151 26 35 0 83 11 146 35 52 19 110 37 129 40 185 22 210 28 216 49 4 12
12 24 17 28 8 4 6 13 -6 25 -9 11 -28 41 -42 68 l-26 50 28 -32 c16 -17 37
-43 48 -58 11 -14 36 -33 55 -41 19 -9 42 -19 50 -24 12 -6 21 2 37 30 22 36
22 40 2 120 -3 11 6 16 32 18 31 3 42 -3 73 -34 46 -47 133 -89 152 -73 11 9
14 8 14 -4 0 -19 -31 -32 -40 -16 -8 13 -50 3 -50 -12 0 -5 10 -14 23 -19 l22
-9 -23 0 c-24 -1 -44 -32 -24 -39 7 -2 13 -20 13 -40 1 -20 3 -29 6 -19 3 12
15 17 43 17 30 0 39 4 43 22 6 21 7 21 27 3 24 -22 29 -95 6 -95 -7 0 -20 -9
-27 -20 -10 -15 -30 -22 -67 -27 -34 -4 -49 -9 -40 -14 10 -7 9 -9 -4 -9 -28
0 -21 -17 10 -24 47 -11 82 -28 82 -40 0 -6 18 -11 42 -11 26 -1 43 -6 46 -14
3 -8 0 -11 -7 -7 -7 5 -11 -1 -11 -15 0 -17 3 -20 12 -11 7 7 17 8 30 1 21
-11 26 9 6 29 -9 9 -7 13 5 18 9 3 17 15 17 25 0 13 7 19 24 19 14 0 28 -4 31
-10 12 -19 26 -11 16 9 -8 14 -7 22 4 31 13 11 13 14 -1 25 -10 6 -14 17 -10
23 10 17 26 15 26 -3 0 -8 4 -15 9 -15 5 0 7 9 4 20 -4 15 0 20 14 20 26 0 64
-52 52 -71 -11 -17 -12 -39 -1 -24 12 17 52 36 52 25 0 -22 -2 -25 -17 -22
-12 3 -14 -1 -8 -15 8 -20 12 -44 14 -87 1 -21 5 -27 16 -22 10 3 15 -1 15
-12 0 -9 9 -32 20 -50 11 -18 20 -40 20 -48 0 -11 6 -14 16 -10 8 3 12 2 9 -4
-3 -6 -3 -16 2 -22 4 -7 8 -29 8 -48 0 -27 4 -34 17 -32 14 2 17 -4 15 -28 -1
-16 -7 -30 -14 -30 -7 0 -10 7 -6 18 5 14 3 15 -7 5 -19 -18 3 -63 30 -63 22
0 26 -10 8 -28 -8 -8 -17 -8 -31 -1 -13 7 -22 8 -29 1 -16 -16 0 -32 33 -32
16 0 29 -4 29 -10 0 -5 -7 -10 -16 -10 -9 0 -29 -9 -45 -20 l-28 -21 -6 24
c-5 19 -16 26 -48 32 -35 6 -38 9 -19 14 31 8 28 27 -4 24 -18 -1 -24 2 -21
12 7 17 -21 42 -53 47 -17 2 -26 10 -28 26 -3 22 -4 23 -17 5 -13 -17 -14 -17
-20 0 -4 9 -11 17 -15 17 -15 0 -17 -35 -3 -63 11 -22 11 -31 1 -50 -15 -25
-17 -49 -6 -57 4 -3 10 -25 14 -49 6 -35 4 -43 -7 -39 -8 3 -13 15 -11 26 3
18 -2 22 -22 22 -30 0 -35 -24 -10 -38 22 -12 8 -35 -16 -29 -25 7 -36 -24
-14 -40 17 -13 15 -23 -12 -60 -15 -21 -15 -23 0 -23 9 0 16 -7 16 -15 0 -17
-14 -19 -40 -5 -14 8 -21 5 -34 -15 -20 -31 -20 -34 3 -28 16 4 19 1 14 -16
-3 -12 -11 -21 -19 -21 -23 0 -25 -19 -5 -39 16 -16 38 -92 33 -113 -1 -5 3
-8 9 -8 6 0 17 -6 24 -14 12 -12 10 -15 -16 -20 -44 -9 -32 -32 14 -28 29 3
37 0 37 -13 0 -14 -7 -16 -37 -13 -30 4 -44 0 -66 -19 -16 -12 -23 -23 -17
-23 6 0 8 -5 4 -11 -11 -18 -7 -69 7 -85 6 -8 9 -17 6 -21 -6 -5 -17 17 -32
62 -5 16 -8 17 -15 5 -8 -12 -10 -11 -10 6 0 11 -7 29 -15 40 -8 10 -15 27
-15 37 0 20 -30 23 -30 3 0 -8 7 -22 16 -30 9 -10 11 -16 4 -16 -14 0 -40 25
-40 38 0 5 -9 17 -19 26 -10 10 -22 34 -26 54 -3 20 -12 46 -19 57 -7 11 -21
74 -32 140 l-18 120 -7 -55 c-28 -225 20 -721 91 -934 11 -33 20 -66 20 -73 0
-19 86 -256 119 -328 15 -33 41 -89 56 -123 61 -137 227 -435 321 -577 29 -44
64 -105 79 -135 30 -61 106 -139 160 -165 50 -23 99 -13 179 38 47 30 74 56
98 95 44 71 122 176 239 319 153 189 389 529 450 648 78 152 208 373 240 410
15 17 36 53 97 160 6 11 19 40 29 63 19 47 54 72 98 72 16 0 25 -6 25 -15 0
-8 7 -15 15 -15 8 0 15 -9 15 -20 0 -42 59 -10 60 33 0 13 6 16 23 12 24 -5
50 10 60 38 7 18 42 23 52 7 3 -5 29 -10 56 -10 46 0 50 -2 47 -22 -3 -20 2
-23 31 -26 24 -3 37 1 44 13 8 15 11 15 28 -4 17 -18 23 -19 40 -8 16 10 21 9
29 -2 7 -13 11 -13 25 -1 15 12 18 12 26 -3 6 -9 17 -17 25 -17 8 0 17 -7 20
-15 8 -21 19 -19 49 10 15 16 25 37 25 56 0 17 6 32 15 35 8 4 12 11 9 16 -6
10 9 48 30 77 6 7 11 21 11 29 0 8 26 29 57 46 61 33 102 66 111 87 4 11 10 9
22 -6 9 -11 21 -19 27 -17 6 2 15 -3 19 -10 11 -17 16 -10 24 35 7 33 5 37
-14 37 -12 0 -21 -6 -21 -15 0 -8 7 -15 16 -15 8 0 13 -4 10 -9 -9 -15 -56 12
-56 32 0 10 8 21 18 24 9 4 28 17 41 30 13 12 27 20 32 17 5 -3 9 5 9 18 0 13
5 29 12 36 9 9 8 15 -6 25 -15 11 -18 25 -14 85 2 40 0 73 -4 74 -4 2 -10 59
-13 128 -2 69 -6 150 -8 180 -2 30 0 60 4 65 4 6 13 55 19 110 7 55 15 116 18
135 3 19 6 61 6 92 1 31 4 60 9 64 4 4 7 25 7 46 0 21 5 38 11 38 6 0 8 8 4
19 -4 14 1 25 20 37 15 10 40 40 56 68 32 57 37 75 14 56 -13 -11 -15 -8 -15
22 0 19 5 39 12 46 9 9 7 12 -9 12 -17 0 -20 -5 -17 -36 l3 -36 -29 27 c-16
15 -26 34 -23 41 3 8 -1 14 -10 14 -10 0 -17 15 -21 48 -7 50 -28 88 -45 78
-5 -4 -13 -2 -16 4 -5 8 -11 7 -21 -1 -10 -8 -14 -8 -14 0 0 6 -9 11 -20 11
-11 0 -20 4 -20 10 0 5 -7 7 -16 3 -11 -4 -14 -13 -10 -29 5 -17 2 -24 -9 -24
-9 0 -15 9 -16 23 0 12 -3 16 -6 10 -8 -21 -33 -15 -33 7 0 11 -4 20 -10 20
-5 0 -10 -8 -10 -18 0 -10 -5 -23 -12 -30 -7 -7 -8 -12 -3 -12 4 0 0 -9 -10
-20 -18 -20 -37 -27 -33 -12 5 20 -16 51 -44 63 -27 11 -32 10 -44 -6 -8 -10
-14 -14 -14 -7 0 6 -7 9 -16 5 -14 -5 -16 -2 -9 23 12 45 11 69 -2 67 -7 -2
-13 1 -13 6 0 5 18 7 40 4 33 -5 40 -3 40 11 0 18 15 22 25 5 4 -6 -1 -17 -11
-25 -11 -9 -13 -13 -7 -9 7 3 21 8 30 10 10 2 29 7 42 11 16 5 22 4 17 -4 -3
-6 -2 -13 4 -17 15 -9 12 -25 -5 -25 -17 0 -20 -25 -5 -35 6 -3 14 5 20 19 9
25 30 36 30 16 0 -5 7 -10 15 -10 8 0 15 9 15 20 0 26 12 25 41 -3 29 -28 85
-36 75 -11 -3 9 -6 24 -6 35 0 13 -7 19 -21 19 -18 0 -20 4 -15 25 6 22 3 25
-19 25 -21 0 -26 4 -23 22 2 17 -4 24 -29 31 -33 10 -41 21 -24 32 5 3 12 1
16 -5 10 -16 27 -12 23 6 -2 11 -15 18 -36 20 l-33 4 5 -45 c4 -44 4 -46 -17
-39 -12 3 -28 11 -35 17 -11 8 -18 6 -30 -10 -26 -33 -92 -31 -92 3 0 8 -4 14
-10 14 -5 0 -10 -7 -10 -15 0 -8 -7 -15 -15 -15 -7 0 -18 -7 -23 -16 -5 -9
-13 -16 -18 -16 -5 0 -20 -5 -34 -10 l-25 -9 28 -17 c29 -18 37 -38 12 -28
-10 4 -19 -2 -25 -17 -8 -21 -9 -21 -9 4 -1 29 -47 89 -68 89 -7 0 -13 -9 -13
-21 0 -15 4 -19 16 -15 9 4 23 1 30 -5 16 -13 19 -33 4 -24 -6 3 -10 -4 -11
-17 l0 -23 -10 24 -10 24 -20 -21 c-30 -33 -50 -29 -42 8 3 19 1 30 -6 30 -6
0 -11 -4 -11 -10 0 -5 -4 -10 -10 -10 -5 0 -10 9 -10 19 0 11 -4 23 -10 26 -5
3 -10 -1 -10 -9 0 -9 -2 -16 -4 -16 -2 0 -13 -3 -23 -7 -14 -5 -13 0 7 23 14
16 31 39 37 51 11 19 10 21 -2 17 -8 -4 -15 -14 -16 -23 -1 -9 -5 2 -10 23 -6
26 -6 43 1 50 7 7 10 6 10 -4 0 -11 3 -11 12 -2 10 10 10 15 -2 23 -13 8 -13
11 3 20 9 5 17 19 17 29 0 11 7 20 15 20 8 0 15 -4 15 -10 0 -5 5 -10 11 -10
6 0 8 9 4 20 -7 22 5 26 23 8 10 -10 15 -10 22 2 13 20 12 60 -1 60 -6 0 -9 5
-7 11 4 12 23 13 23 2 1 -5 8 -21 17 -38 l16 -30 7 38 c4 20 11 40 16 43 16
10 9 23 -13 27 -20 3 -19 5 10 12 35 8 44 25 12 25 -22 0 -27 28 -10 60 7 12
7 27 0 45 -9 22 -6 29 18 50 15 14 33 22 40 20 7 -3 16 3 19 13 4 9 13 22 22
28 15 12 8 49 -8 39 -5 -3 -12 -1 -16 4 -3 5 1 13 9 18 7 4 15 17 17 28 3 11
15 25 29 32 14 7 19 13 13 13 -7 0 -13 5 -13 10 0 6 10 10 21 10 16 0 20 5 16
20 -4 16 2 25 21 29 2 1 0 -14 -4 -31z m-1384 15 c-8 -3 -21 -12 -27 -21 -15
-19 -26 -11 -17 12 4 9 17 16 33 15 15 0 20 -3 11 -6z m-57 -54 c-7 -7 -20 -8
-30 -5 -17 7 -17 8 1 22 23 17 48 2 29 -17z m-183 11 c0 -5 -7 -10 -15 -10 -8
0 -15 5 -15 10 0 6 7 10 15 10 8 0 15 -4 15 -10z m-73 -6 c-3 -3 -12 -4 -19
-1 -8 3 -5 6 6 6 11 1 17 -2 13 -5z m207 -20 c9 -23 8 -24 -14 -24 -19 0 -27
20 -13 33 11 11 20 8 27 -9z m-151 -25 c9 0 17 -7 17 -15 0 -21 31 -17 37 6 8
31 43 26 43 -6 0 -16 -5 -24 -12 -21 -7 2 -32 -4 -55 -14 -24 -10 -43 -14 -43
-9 0 6 5 10 10 10 6 0 10 5 10 10 0 17 -38 11 -49 -7 -14 -26 -31 -4 -24 30 5
24 9 27 27 22 11 -4 29 -7 39 -6z m-213 -30 c0 -24 -23 -21 -28 4 -2 10 3 17
12 17 10 0 16 -9 16 -21z m66 -6 c-10 -10 -19 5 -10 18 6 11 8 11 12 0 2 -7 1
-15 -2 -18z m-156 -33 c0 -5 -2 -10 -4 -10 -3 0 -8 5 -11 10 -3 6 -1 10 4 10
6 0 11 -4 11 -10z m208 -28 c2 -7 -7 -12 -23 -12 -24 0 -26 2 -15 15 14 17 31
16 38 -3z m72 -3 c0 -5 -7 -9 -15 -9 -8 0 -15 7 -15 15 0 9 6 12 15 9 8 -4 15
-10 15 -15z m-330 -3 c0 -8 -4 -18 -10 -21 -16 -10 -12 -23 10 -30 11 -3 20
-13 20 -22 0 -14 -2 -14 -18 0 -10 10 -24 17 -30 17 -20 0 -23 19 -6 45 18 28
34 33 34 11z m180 -38 c0 -18 -2 -20 -9 -8 -6 8 -7 18 -5 22 9 14 14 9 14 -14z
m110 14 c0 -14 -23 -32 -42 -32 -17 0 -17 1 0 19 17 20 42 27 42 13z m-198
-104 c-7 -7 -12 -8 -12 -2 0 14 12 26 19 19 2 -3 -1 -11 -7 -17z m-52 2 c0 -5
-2 -10 -4 -10 -3 0 -8 5 -11 10 -3 6 -1 10 4 10 6 0 11 -4 11 -10z m128 -32
c-2 -6 -10 -14 -16 -16 -7 -2 -10 2 -6 12 7 18 28 22 22 4z m906 -53 c21 22
94 17 107 -6 14 -27 2 -31 -115 -46 -31 -4 -47 -2 -43 4 4 6 0 19 -8 29 -22
30 -18 36 14 19 27 -13 31 -13 45 0z m-74 -24 c0 -10 -35 -21 -65 -21 -20 1
-20 1 -1 15 22 16 66 20 66 6z m730 -17 c0 -8 -4 -12 -10 -9 -5 3 -10 10 -10
16 0 5 5 9 10 9 6 0 10 -7 10 -16z m-450 -8 c0 -16 -25 -27 -52 -23 -32 5 -30
16 3 26 47 13 49 13 49 -3z m-110 -26 c0 -5 -4 -10 -10 -10 -5 0 -10 5 -10 10
0 6 5 10 10 10 6 0 10 -4 10 -10z m-2473 -6 c-3 -3 -12 -4 -19 -1 -8 3 -5 6 6
6 11 1 17 -2 13 -5z m3 -39 c15 -8 37 -26 48 -39 11 -14 23 -22 26 -18 4 4 16
-4 26 -18 11 -14 20 -19 20 -12 0 20 24 13 44 -14 14 -20 16 -28 6 -34 -7 -4
-9 -13 -6 -19 10 -16 -8 -14 -49 6 -29 14 -40 15 -55 5 -14 -9 -20 -8 -23 1
-3 7 -6 2 -6 -9 -1 -12 -7 -27 -15 -34 -8 -6 -12 -18 -9 -27 3 -8 0 -19 -7
-23 -7 -4 -15 -30 -17 -56 -5 -53 4 -120 15 -110 3 4 13 -13 22 -36 13 -37 19
-43 41 -40 16 2 33 -6 49 -23 19 -21 21 -25 7 -25 -9 0 -17 -7 -17 -15 0 -20
-7 -19 -37 5 -14 11 -29 17 -34 14 -5 -3 -6 2 -3 10 3 9 1 16 -5 16 -6 0 -11
6 -11 13 0 7 -9 20 -20 30 -11 9 -17 23 -14 32 4 8 1 15 -4 15 -6 0 -16 24
-22 53 -10 42 -9 74 5 172 9 66 22 127 29 135 16 18 10 40 -10 40 -8 0 -14 5
-14 10 0 13 6 13 40 -5z m1340 -44 c0 -6 -4 -13 -10 -16 -5 -3 -10 1 -10 9 0
9 5 16 10 16 6 0 10 -4 10 -9z m-1092 -53 c-5 -15 -48 -24 -48 -10 0 14 12 22
33 22 10 0 17 -5 15 -12z m998 -4 c-3 -9 -6 -20 -6 -25 0 -5 -7 -9 -16 -9 -11
0 -14 5 -10 16 3 9 6 20 6 25 0 5 7 9 16 9 11 0 14 -5 10 -16z m111 -10 c-3
-3 -12 -4 -19 -1 -8 3 -5 6 6 6 11 1 17 -2 13 -5z m-231 -31 c-10 -10 -19 5
-10 18 6 11 8 11 12 0 2 -7 1 -15 -2 -18z m339 -1 c-8 -8 -25 10 -19 20 4 6 9
5 15 -3 4 -7 6 -15 4 -17z m-151 -1 c3 -5 0 -13 -7 -19 -10 -8 -13 -6 -13 9 0
20 11 25 20 10z m91 -1 c3 -5 1 -10 -4 -10 -6 0 -11 5 -11 10 0 6 2 10 4 10 3
0 8 -4 11 -10z m1485 -20 c0 -5 -5 -10 -11 -10 -5 0 -7 5 -4 10 3 6 8 10 11
10 2 0 4 -4 4 -10z m-1524 -27 c-10 -10 -19 5 -10 18 6 11 8 11 12 0 2 -7 1
-15 -2 -18z m2102 -5 c-6 -18 -28 -21 -28 -4 0 9 7 16 16 16 9 0 14 -5 12 -12z
m-1948 -8 c0 -5 -2 -10 -4 -10 -3 0 -8 5 -11 10 -3 6 -1 10 4 10 6 0 11 -4 11
-10z m-173 -37 c-3 -10 -5 -4 -5 12 0 17 2 24 5 18 2 -7 2 -21 0 -30z m2057
22 c-4 -8 -16 -15 -28 -15 -21 1 -21 1 -2 15 25 19 37 19 30 0z m-2084 -5 c0
-5 -5 -10 -11 -10 -5 0 -7 5 -4 10 3 6 8 10 11 10 2 0 4 -4 4 -10z m196 -25
c4 -14 4 -29 1 -32 -3 -3 -9 6 -12 20 -4 14 -14 28 -23 30 -12 3 -10 5 5 6 16
1 24 -6 29 -24z m1066 -9 c3 -17 1 -23 -8 -19 -13 5 -84 -53 -84 -69 0 -4 7
-8 15 -8 21 0 19 -13 -10 -44 -30 -33 -38 -33 -53 2 -7 16 -10 19 -9 7 2 -12
-7 -29 -25 -43 -21 -18 -28 -20 -28 -8 0 8 4 18 10 21 23 14 30 43 14 59 -23
23 -8 39 21 20 22 -15 23 -14 35 22 10 28 10 39 1 42 -16 5 -13 32 4 32 8 0
15 -8 15 -17 1 -17 1 -17 11 0 5 9 21 17 34 17 13 0 27 5 30 10 9 15 22 4 27
-24z m898 24 c0 -5 -4 -10 -10 -10 -5 0 -10 5 -10 10 0 6 5 10 10 10 6 0 10
-4 10 -10z m-2028 -22 c-7 -7 -12 -8 -12 -2 0 14 12 26 19 19 2 -3 -1 -11 -7
-17z m-45 -20 c-3 -7 -5 -2 -5 12 0 14 2 19 5 13 2 -7 2 -19 0 -25z m201 -10
c-3 -7 -15 -18 -29 -25 -20 -10 -27 -10 -39 3 -18 18 -5 29 41 32 21 2 30 -1
27 -10z m1022 -23 c0 -5 -5 -3 -10 5 -5 8 -10 20 -10 25 0 6 5 3 10 -5 5 -8
10 -19 10 -25z m890 25 c0 -5 -2 -10 -4 -10 -3 0 -8 5 -11 10 -3 6 -1 10 4 10
6 0 11 -4 11 -10z m-563 -44 c-10 -26 -22 -18 -23 15 -1 27 0 29 14 16 8 -9
12 -23 9 -31z m-1457 14 c0 -5 -7 -10 -15 -10 -8 0 -15 5 -15 10 0 6 7 10 15
10 8 0 15 -4 15 -10z m1207 -34 c-10 -26 -25 -18 -19 10 3 17 8 22 15 15 5 -5
7 -17 4 -25z m-1093 5 c7 -10 -18 -34 -27 -25 -7 8 3 34 13 34 5 0 11 -4 14
-9z m296 -23 c0 -23 -3 -29 -11 -21 -6 6 -8 20 -4 32 9 30 15 26 15 -11z m410
22 c0 -14 28 -12 33 3 2 6 8 8 13 4 5 -5 1 -13 -9 -18 -12 -7 -16 -17 -12 -32
6 -19 3 -18 -19 7 -27 31 -33 46 -16 46 6 0 10 -4 10 -10z m-655 -10 c-3 -5
-10 -10 -16 -10 -5 0 -9 5 -9 10 0 6 7 10 16 10 8 0 12 -4 9 -10z m52 4 c-3
-3 -12 -4 -19 -1 -8 3 -5 6 6 6 11 1 17 -2 13 -5z m139 -31 c-7 -7 -26 7 -26
19 0 6 6 6 15 -2 9 -7 13 -15 11 -17z m106 -15 c-10 -22 -11 -21 -11 12 -1 26
2 31 11 22 8 -8 8 -17 0 -34z m62 7 c-4 -8 -11 -15 -16 -15 -6 0 -5 6 2 15 7
8 14 15 16 15 2 0 1 -7 -2 -15z m265 -11 c-6 -8 -22 -14 -34 -14 -13 0 -26 -6
-28 -12 -3 -7 -6 -3 -6 10 -1 12 -5 22 -11 22 -5 0 -10 3 -10 8 0 4 23 5 50 4
42 -3 49 -6 39 -18z m101 11 c0 -8 -4 -15 -10 -15 -5 0 -10 7 -10 15 0 8 5 15
10 15 6 0 10 -7 10 -15z m240 -5 c0 -5 -4 -10 -10 -10 -5 0 -10 5 -10 10 0 6
5 10 10 10 6 0 10 -4 10 -10z m-880 -10 c0 -5 -2 -10 -4 -10 -3 0 -8 5 -11 10
-3 6 -1 10 4 10 6 0 11 -4 11 -10z m1663 -10 c3 -11 1 -20 -4 -20 -5 0 -9 9
-9 20 0 11 2 20 4 20 2 0 6 -9 9 -20z m-1551 -22 c-9 -9 -12 -7 -12 12 0 19 3
21 12 12 9 -9 9 -15 0 -24z m1658 11 c0 -4 14 -21 30 -38 l30 -30 -21 -35
c-11 -20 -25 -36 -30 -36 -15 0 -10 30 6 36 8 4 15 15 15 25 0 10 -7 19 -15
19 -8 0 -15 6 -15 14 0 7 -7 19 -15 26 -8 7 -15 16 -15 20 0 3 7 7 15 7 8 0
15 -4 15 -8z m-320 -3 c0 -3 -4 -8 -10 -11 -5 -3 -10 -1 -10 4 0 6 5 11 10 11
6 0 10 -2 10 -4z m-1650 -27 c0 -5 -4 -9 -10 -9 -5 0 -10 7 -10 16 0 8 5 12
10 9 6 -3 10 -10 10 -16z m1179 8 c14 -18 -3 -126 -29 -178 -10 -22 -21 -58
-25 -82 -7 -39 -18 -56 -37 -57 -12 0 -9 48 2 52 6 2 13 16 16 31 3 18 1 26
-5 23 -15 -10 -35 33 -22 48 7 9 7 16 -2 25 -9 9 -5 17 17 35 21 16 26 25 17
30 -7 5 -17 1 -24 -7 -20 -25 -48 -25 -58 1 -6 16 -5 24 4 26 45 14 48 16 42
36 -5 15 -3 18 8 14 8 -3 17 -15 20 -26 7 -26 27 -14 27 18 0 27 29 34 49 11z
m-837 -58 c-6 -43 -17 -43 -18 1 -1 26 2 37 11 34 7 -3 10 -17 7 -35z m1583
30 c10 -15 -1 -23 -20 -15 -9 3 -13 10 -10 16 8 13 22 13 30 -1z m21 -51 c-16
-22 -16 -22 -16 -1 0 12 6 23 13 26 19 7 20 0 3 -25z m104 -12 c0 -11 -19 -15
-25 -6 -3 5 1 10 9 10 9 0 16 -2 16 -4z m-2030 -10 c0 -3 -4 -8 -10 -11 -5 -3
-10 -1 -10 4 0 6 5 11 10 11 6 0 10 -2 10 -4z m-640 -88 c0 -21 -4 -22 -31 -8
-24 13 -25 37 -1 42 19 4 32 -9 32 -34z m1353 5 c-7 -17 -33 2 -33 23 0 11 4
12 19 2 10 -6 17 -18 14 -25z m44 31 c-3 -3 -12 -4 -19 -1 -8 3 -5 6 6 6 11 1
17 -2 13 -5z m134 -17 c-1 -12 -15 -9 -19 4 -3 6 1 10 8 8 6 -3 11 -8 11 -12z
m144 -6 c-3 -6 -14 -11 -23 -11 -15 1 -15 2 2 15 21 16 32 13 21 -4z m-281
-52 c-8 -14 -24 -10 -24 6 0 9 6 12 15 9 8 -4 12 -10 9 -15z m286 -22 c0 -6
-9 -2 -20 8 -11 10 -17 22 -13 28 6 10 33 -19 33 -36z m-430 -13 c0 -17 -22
-14 -28 4 -2 7 3 12 12 12 9 0 16 -7 16 -16z m-95 -14 c-3 -5 -13 -10 -21 -10
-8 0 -12 5 -9 10 3 6 13 10 21 10 8 0 12 -4 9 -10z m458 -47 c-3 -7 0 -20 7
-28 7 -8 8 -15 4 -15 -5 0 -18 11 -28 25 -10 13 -22 22 -27 20 -9 -6 -23 14
-15 22 3 3 12 0 21 -7 12 -10 16 -9 21 5 5 12 9 13 14 4 5 -7 6 -18 3 -26z
m53 -47 c-2 -6 -5 -1 -5 12 -1 12 -5 22 -11 22 -12 0 -14 33 -3 44 9 9 26 -62
19 -78z m989 24 c0 -57 -8 -63 -30 -20 -17 33 -40 31 -29 -2 4 -15 2 -19 -7
-16 -16 5 -23 38 -11 55 4 6 19 13 34 15 15 2 30 7 34 11 4 4 8 7 8 7 1 0 1
-22 1 -50z m-2675 -47 c0 -30 -9 -27 -15 6 -2 11 0 21 6 21 5 0 9 -12 9 -27z
m-150 2 c0 -8 -7 -15 -15 -15 -16 0 -20 12 -8 23 11 12 23 8 23 -8z m2780 -26
c0 -11 -4 -17 -10 -14 -5 3 -10 13 -10 21 0 8 5 14 10 14 6 0 10 -9 10 -21z
m-1305 -9 c-3 -5 -11 -10 -16 -10 -6 0 -7 5 -4 10 3 6 11 10 16 10 6 0 7 -4 4
-10z m1294 -35 c21 6 36 -9 45 -49 6 -24 4 -27 -9 -22 -11 4 -18 0 -22 -13 -2
-10 -19 -29 -35 -41 -30 -22 -34 -22 -96 -10 -36 7 -73 20 -84 29 -23 20 -24
46 -2 37 9 -4 22 -1 30 5 8 7 19 7 30 1 9 -5 25 -7 35 -5 15 4 19 0 19 -21 0
-35 26 -44 50 -18 16 17 18 28 12 64 -8 43 -2 94 6 55 2 -12 10 -16 21 -12z
m-2534 -5 c-3 -5 -11 -10 -16 -10 -6 0 -7 5 -4 10 3 6 11 10 16 10 6 0 7 -4 4
-10z m2370 -20 c3 -5 1 -10 -4 -10 -6 0 -11 5 -11 10 0 6 2 10 4 10 3 0 8 -4
11 -10z m-2449 -66 c-4 -9 -9 -15 -11 -12 -3 3 -3 13 1 22 4 9 9 15 11 12 3
-3 3 -13 -1 -22z m264 -13 c0 -6 -4 -13 -10 -16 -5 -3 -10 1 -10 9 0 9 5 16
10 16 6 0 10 -4 10 -9z m2328 -183 c16 -16 15 -38 -1 -38 -14 0 -39 35 -30 44
9 9 18 7 31 -6z m-48 -28 c0 -5 6 -9 13 -7 6 1 11 -6 9 -15 -2 -13 4 -18 23
-18 14 0 25 6 25 13 0 8 3 7 10 -3 12 -19 -20 -29 -67 -23 -44 7 -68 63 -26
63 7 0 13 -4 13 -10z m-51 -46 c23 -30 27 -44 10 -44 -15 0 -35 22 -43 48 -10
30 8 28 33 -4z m-39 -19 c0 -8 -2 -15 -4 -15 -2 0 -6 7 -10 15 -3 8 -1 15 4
15 6 0 10 -7 10 -15z m-72 -7 c6 -6 12 -19 12 -29 0 -16 -2 -17 -27 -4 -16 8
-36 16 -46 19 -10 3 -16 9 -14 13 8 12 61 12 75 1z m79 -50 c-3 -8 -6 -5 -6 6
-1 11 2 17 5 13 3 -3 4 -12 1 -19z m-2319 -20 c-6 -18 -28 -21 -28 -4 0 9 7
16 16 16 9 0 14 -5 12 -12z m-261 -45 c-3 -3 -11 -2 -17 2 -9 6 -9 10 1 16 14
8 27 -7 16 -18z m2738 -87 c-12 -80 -13 -111 -3 -184 8 -53 8 -76 0 -84 -8 -8
-13 -7 -17 5 -3 9 -7 24 -10 34 -5 15 -7 15 -18 -1 -12 -16 -14 -16 -26 -2
-16 19 -6 53 20 66 24 14 25 30 0 30 -10 0 -21 -9 -24 -20 -6 -24 -42 -27 -51
-4 -5 13 -12 10 -37 -15 -34 -35 -47 -38 -56 -16 -6 18 23 55 44 55 8 0 24 9
36 20 l21 21 17 -22 c11 -15 18 -18 24 -10 4 7 13 10 20 7 29 -11 40 38 21 93
-6 18 -4 26 8 33 9 5 16 18 16 29 0 12 5 17 10 14 7 -4 8 -23 5 -49z m-2495
-20 c-23 -10 -47 5 -36 22 4 7 15 6 31 -1 24 -12 24 -12 5 -21z m-280 -15 c0
-22 -28 -73 -34 -62 -4 6 -4 17 1 24 4 6 6 20 5 30 -2 10 3 17 12 17 9 0 16
-4 16 -9z m220 -1 c0 -5 -4 -10 -10 -10 -5 0 -10 5 -10 10 0 6 5 10 10 10 6 0
10 -4 10 -10z m100 -50 c0 -5 -2 -10 -4 -10 -3 0 -8 5 -11 10 -3 6 -1 10 4 10
6 0 11 -4 11 -10z m-480 -250 c0 -5 -4 -10 -9 -10 -6 0 -13 5 -16 10 -3 6 1
10 9 10 9 0 16 -4 16 -10z m2970 -20 c0 -5 -4 -10 -10 -10 -5 0 -10 5 -10 10
0 6 5 10 10 10 6 0 10 -4 10 -10z m-2925 -50 c3 -5 -1 -10 -9 -10 -9 0 -16 5
-16 10 0 6 4 10 9 10 6 0 13 -4 16 -10z m-306 -224 c-5 -6 -9 7 -8 35 l1 44 8
-35 c5 -20 5 -39 -1 -44z m316 34 c-3 -5 -11 -10 -16 -10 -6 0 -7 5 -4 10 3 6
11 10 16 10 6 0 7 -4 4 -10z m-72 -32 c7 -27 3 -32 -18 -25 -19 8 -20 47 -1
47 7 0 16 -10 19 -22z m-213 -64 c0 -8 -5 -12 -10 -9 -6 4 -8 11 -5 16 9 14
15 11 15 -7z m230 -37 c0 -5 -4 -5 -10 -2 -5 3 -10 14 -10 23 0 15 2 15 10 2
5 -8 10 -19 10 -23z m2515 -27 c-3 -5 -12 -10 -18 -10 -7 0 -6 4 3 10 19 12
23 12 15 0z m-2490 -60 c3 -5 1 -10 -4 -10 -6 0 -11 5 -11 10 0 6 2 10 4 10 3
0 8 -4 11 -10z m105 -30 c0 -5 -4 -10 -10 -10 -5 0 -10 5 -10 10 0 6 5 10 10
10 6 0 10 -4 10 -10z m-4450 -3119 c0 -5 10 -11 23 -13 18 -2 21 -8 19 -30 -4
-30 12 -38 22 -13 3 8 10 15 16 15 7 0 7 -7 -1 -21 -6 -12 -8 -36 -5 -54 5
-25 3 -34 -10 -39 -24 -9 -37 4 -31 33 4 20 0 30 -14 39 -16 10 -19 9 -19 -3
0 -8 5 -15 10 -15 16 0 11 -37 -6 -44 -39 -15 -44 -8 -44 59 0 39 5 72 13 80
14 16 27 19 27 6z m106 -99 c-4 -3 -12 0 -19 7 -9 9 -9 14 3 21 11 7 16 5 18
-6 2 -9 1 -18 -2 -22z m64 -45 c0 -16 -5 -18 -26 -13 -20 5 -27 3 -31 -14 -3
-11 -9 -20 -14 -20 -16 0 -10 29 13 64 20 30 23 32 40 17 10 -8 18 -24 18 -34z
m-150 -74 c0 -26 -1 -26 -17 -10 -16 16 -16 19 -3 27 20 13 20 13 20 -17z m46
-40 c-10 -10 -19 5 -10 18 6 11 8 11 12 0 2 -7 1 -15 -2 -18z m1794 -109 c0
-8 -5 -12 -10 -9 -6 4 -8 11 -5 16 9 14 15 11 15 -7z m6170 -157 c0 -18 -2
-19 -10 -7 -13 20 -13 43 0 35 6 -3 10 -16 10 -28z m-1780 -307 c0 -5 -4 -10
-10 -10 -5 0 -10 5 -10 10 0 6 5 10 10 10 6 0 10 -4 10 -10z m-5608 -182 c-7
-7 -12 -8 -12 -2 0 14 12 26 19 19 2 -3 -1 -11 -7 -17z m208 -14 c0 -17 -22
-14 -28 4 -2 7 3 12 12 12 9 0 16 -7 16 -16z m366 -101 c-10 -10 -19 5 -10 18
6 11 8 11 12 0 2 -7 1 -15 -2 -18z m114 12 c0 -17 -2 -18 -25 -9 -13 5 -14 8
-3 15 19 13 28 11 28 -6z m-270 -9 c0 -3 -4 -8 -10 -11 -5 -3 -10 -1 -10 4 0
6 5 11 10 11 6 0 10 -2 10 -4z m570 -49 c0 -16 -35 -1 -38 16 -3 16 -1 17 17
5 12 -7 21 -17 21 -21z m-390 -7 c0 -11 -4 -20 -10 -20 -5 0 -10 9 -10 20 0
11 5 20 10 20 6 0 10 -9 10 -20z m101 -30 c23 0 24 -6 3 -28 -15 -15 -18 -14
-35 7 -16 19 -17 26 -7 39 12 13 13 13 16 -1 2 -10 12 -17 23 -17z m89 15 c0
-8 -7 -15 -15 -15 -9 0 -12 6 -9 15 4 8 10 15 15 15 5 0 9 -7 9 -15z m877 -11
c-3 -3 -12 -4 -19 -1 -8 3 -5 6 6 6 11 1 17 -2 13 -5z m580 0 c-3 -3 -12 -4
-19 -1 -8 3 -5 6 6 6 11 1 17 -2 13 -5z m-1407 -14 c0 -5 -4 -10 -10 -10 -5 0
-10 5 -10 10 0 6 5 10 10 10 6 0 10 -4 10 -10z m50 2 c0 -13 -12 -22 -22 -16
-10 6 -1 24 13 24 5 0 9 -4 9 -8z m65 -2 c-3 -5 -10 -10 -16 -10 -5 0 -9 5 -9
10 0 6 7 10 16 10 8 0 12 -4 9 -10z m65 -20 c0 -10 -31 -23 -38 -15 -8 7 19
35 29 29 5 -3 9 -9 9 -14z m94 -31 c-19 -22 -19 -22 9 -15 22 5 27 3 27 -13 0
-17 -6 -19 -45 -16 -43 3 -75 18 -75 35 0 4 20 11 45 14 25 4 45 12 45 18 0 6
3 8 7 5 3 -4 -2 -17 -13 -28z m816 21 c0 -13 -28 -25 -38 -16 -3 4 0 11 8 16
20 13 30 12 30 0z m-684 -10 c9 0 12 -4 9 -10 -10 -17 -55 -12 -55 6 0 11 5
14 16 10 9 -3 22 -6 30 -6z m364 -10 c0 -11 -4 -20 -10 -20 -5 0 -10 9 -10 20
0 11 5 20 10 20 6 0 10 -9 10 -20z m-125 -10 c-3 -4 0 -11 5 -13 6 -3 5 -4 -2
-3 -7 1 -15 11 -16 21 -3 11 0 15 7 10 6 -3 9 -10 6 -15z m1105 10 c0 -5 -4
-10 -10 -10 -5 0 -10 5 -10 10 0 6 5 10 10 10 6 0 10 -4 10 -10z m-1720 -4 c0
-16 -14 -36 -26 -36 -14 0 -19 22 -7 33 7 8 33 10 33 3z m800 -16 c-24 -15
-36 -11 -14 4 10 8 21 12 24 10 2 -3 -2 -9 -10 -14z m80 10 c0 -5 -7 -10 -15
-10 -8 0 -15 5 -15 10 0 6 7 10 15 10 8 0 15 -4 15 -10z m730 6 c0 -9 -40 -13
-46 -5 -3 5 6 9 20 9 14 0 26 -2 26 -4z m-1470 -22 c0 -2 -9 -4 -21 -4 -11 0
-18 4 -14 10 5 8 35 3 35 -6z m1638 -12 c2 -7 -3 -12 -12 -12 -9 0 -16 7 -16
16 0 17 22 14 28 -4z m-1420 -4 c-7 -20 -58 -23 -58 -4 0 11 10 16 31 16 20 0
29 -4 27 -12z m209 6 c-3 -3 -12 -4 -19 -1 -8 3 -5 6 6 6 11 1 17 -2 13 -5z
m-47 -29 c0 -12 -29 -3 -34 10 -4 13 -2 14 14 5 11 -6 20 -13 20 -15z m-1700
-15 c-9 -6 -19 -5 -25 1 -6 6 -5 13 5 19 9 6 19 5 25 -1 6 -6 5 -13 -5 -19z
m3310 20 c0 -5 -7 -10 -15 -10 -8 0 -15 5 -15 10 0 6 7 10 15 10 8 0 15 -4 15
-10z m198 -9 c3 -8 -1 -12 -9 -9 -7 2 -15 10 -17 17 -3 8 1 12 9 9 7 -2 15
-10 17 -17z m-248 -1 c-20 -13 -50 -13 -50 0 0 6 15 10 33 10 24 0 28 -3 17
-10z m-2760 -140 c-9 -6 -19 -5 -25 1 -6 6 -5 13 5 19 9 6 19 5 25 -1 6 -6 5
-13 -5 -19z m130 -25 c0 -13 -18 -30 -25 -23 -2 1 -7 16 -11 32 -6 26 -5 27
15 17 11 -7 21 -18 21 -26z m-157 11 c4 -10 1 -13 -9 -9 -7 3 -14 9 -14 14 0
14 17 10 23 -5z m90 -19 c-3 -5 -10 -4 -15 1 -6 6 -7 16 -3 22 6 9 9 9 16 -1
4 -7 5 -17 2 -22z m727 -21 c0 -3 -4 -8 -10 -11 -5 -3 -10 -1 -10 4 0 6 5 11
10 11 6 0 10 -2 10 -4z m-615 -16 c3 -5 1 -10 -4 -10 -6 0 -11 5 -11 10 0 6 2
10 4 10 3 0 8 -4 11 -10z m140 0 c-3 -5 -10 -10 -16 -10 -5 0 -9 5 -9 10 0 6
7 10 16 10 8 0 12 -4 9 -10z m291 -47 c-11 -11 -19 6 -11 24 8 17 8 17 12 0 3
-10 2 -21 -1 -24z m142 16 c7 -12 11 -23 8 -26 -8 -9 -36 17 -36 33 0 20 13
17 28 -7z m-608 -5 c0 -8 -4 -12 -10 -9 -5 3 -10 10 -10 16 0 5 5 9 10 9 6 0
10 -7 10 -16z m310 -4 c0 -18 -3 -19 -20 -10 -22 12 -18 30 6 30 8 0 14 -9 14
-20z m80 10 c0 -5 -5 -10 -11 -10 -5 0 -7 5 -4 10 3 6 8 10 11 10 2 0 4 -4 4
-10z m167 -17 c-2 -29 -18 -53 -35 -53 -8 0 27 79 34 80 1 0 1 -12 1 -27z
m110 -19 c-10 -10 -37 16 -37 34 0 13 4 12 22 -5 12 -13 19 -25 15 -29z m113
-14 c0 -5 -4 -10 -10 -10 -5 0 -10 5 -10 10 0 6 5 10 10 10 6 0 10 -4 10 -10z
m330 0 c0 -5 -4 -10 -9 -10 -6 0 -13 5 -16 10 -3 6 1 10 9 10 9 0 16 -4 16
-10z m-713 -22 c-3 -8 -6 -5 -6 6 -1 11 2 17 5 13 3 -3 4 -12 1 -19z m53 -13
c0 -8 -4 -15 -10 -15 -5 0 -10 7 -10 15 0 8 5 15 10 15 6 0 10 -7 10 -15z
m320 -7 c0 -18 -2 -20 -9 -8 -6 8 -7 18 -5 22 9 14 14 9 14 -14z m265 12 c3
-5 1 -10 -4 -10 -6 0 -11 5 -11 10 0 6 2 10 4 10 3 0 8 -4 11 -10z m-458 -6
c-3 -3 -12 -4 -19 -1 -8 3 -5 6 6 6 11 1 17 -2 13 -5z m2021 -56 c16 -16 15
-28 -3 -28 -8 0 -15 2 -15 4 0 2 -3 11 -6 20 -7 19 7 21 24 4z m1372 2 c0 -5
-4 -10 -10 -10 -5 0 -10 5 -10 10 0 6 5 10 10 10 6 0 10 -4 10 -10z m-2650
-14 c0 -6 -11 -11 -25 -11 -33 0 -33 20 0 21 14 1 25 -3 25 -10z m1090 -12 c0
-14 -21 -19 -33 -7 -9 9 13 34 24 27 5 -3 9 -12 9 -20z m81 -2 c-7 -2 -18 1
-23 6 -8 8 -4 9 13 5 13 -4 18 -8 10 -11z m1436 -2 c29 -22 26 -25 -11 -10
-14 5 -26 14 -26 20 0 15 9 12 37 -10z m-2747 -5 c0 -8 -4 -15 -10 -15 -5 0
-10 7 -10 15 0 8 5 15 10 15 6 0 10 -7 10 -15z m-42 -31 c-10 -10 -28 6 -28
24 0 15 1 15 17 -1 9 -9 14 -19 11 -23z m99 10 c-9 -9 -28 6 -21 18 4 6 10 6
17 -1 6 -6 8 -13 4 -17z m1583 -4 c0 -5 -2 -10 -4 -10 -3 0 -8 5 -11 10 -3 6
-1 10 4 10 6 0 11 -4 11 -10z m210 0 c0 -5 -2 -10 -4 -10 -3 0 -8 5 -11 10 -3
6 -1 10 4 10 6 0 11 -4 11 -10z m1710 -12 c0 -13 -32 -6 -37 9 -3 7 3 9 16 6
12 -3 21 -10 21 -15z m1780 18 c0 -3 -4 -8 -10 -11 -5 -3 -10 -1 -10 4 0 6 5
11 10 11 6 0 10 -2 10 -4z m-2102 -42 c-10 -10 -28 6 -28 24 0 15 1 15 17 -1
9 -9 14 -19 11 -23z m705 11 c-8 -22 -22 -18 -16 5 3 11 9 17 14 15 4 -3 6
-12 2 -20z m-2201 3 c6 -16 -1 -38 -12 -38 -11 0 -21 30 -14 41 8 13 21 11 26
-3z m308 4 c0 -10 -22 -32 -32 -32 -4 0 -8 9 -8 20 0 13 7 20 20 20 11 0 20
-4 20 -8z m-2060 -12 c0 -5 -2 -10 -4 -10 -3 0 -8 5 -11 10 -3 6 -1 10 4 10 6
0 11 -4 11 -10z m2932 -12 c-7 -7 -12 -8 -12 -2 0 14 12 26 19 19 2 -3 -1 -11
-7 -17z m-2736 -15 c-10 -10 -19 5 -10 18 6 11 8 11 12 0 2 -7 1 -15 -2 -18z
m2899 17 c3 -5 2 -10 -4 -10 -5 0 -13 5 -16 10 -3 6 -2 10 4 10 5 0 13 -4 16
-10z m410 -10 c3 -5 1 -10 -4 -10 -6 0 -11 5 -11 10 0 6 2 10 4 10 3 0 8 -4
11 -10z m989 -21 c-3 -5 -10 -7 -15 -3 -5 3 -7 10 -3 15 3 5 10 7 15 3 5 -3 7
-10 3 -15z m-3469 1 c3 -5 -1 -10 -9 -10 -9 0 -16 5 -16 10 0 6 4 10 9 10 6 0
13 -4 16 -10z m-462 -20 c-3 -11 -9 -17 -14 -15 -10 7 -1 35 11 35 5 0 6 -9 3
-20z m3727 11 c0 -12 -20 -25 -27 -18 -7 7 6 27 18 27 5 0 9 -4 9 -9z m-100
-60 c0 -5 3 -16 6 -25 4 -11 1 -16 -10 -16 -10 0 -16 9 -16 25 0 14 5 25 10
25 6 0 10 -4 10 -9z m50 -82 c0 -5 -4 -9 -10 -9 -5 0 -10 7 -10 16 0 8 5 12
10 9 6 -3 10 -10 10 -16z"/>
<path d="M8285 10440 c-3 -5 -1 -10 4 -10 6 0 11 5 11 10 0 6 -2 10 -4 10 -3
0 -8 -4 -11 -10z"/>
<path d="M7861 9059 c-13 -5 -21 -12 -18 -15 9 -9 57 5 57 16 0 12 -7 12 -39
-1z"/>
<path d="M7952 8989 c-10 -15 -10 -25 -3 -32 12 -12 25 12 19 38 -2 13 -6 12
-16 -6z"/>
<path d="M7700 8976 c0 -9 5 -16 10 -16 6 0 10 4 10 9 0 6 -4 13 -10 16 -5 3
-10 -1 -10 -9z"/>
<path d="M8080 8785 c0 -8 2 -15 4 -15 2 0 6 7 10 15 3 8 1 15 -4 15 -6 0 -10
-7 -10 -15z"/>
<path d="M7660 8720 c0 -5 7 -10 15 -10 8 0 15 5 15 10 0 6 -7 10 -15 10 -8 0
-15 -4 -15 -10z"/>
<path d="M8100 8705 c0 -8 5 -15 10 -15 6 0 10 7 10 15 0 8 -4 15 -10 15 -5 0
-10 -7 -10 -15z"/>
<path d="M8115 8669 c-4 -6 -4 -13 -1 -16 3 -4 6 -1 6 5 0 7 5 12 10 12 6 0
10 -7 10 -16 0 -8 5 -12 10 -9 6 3 10 13 10 21 0 16 -36 19 -45 3z"/>
<path d="M8185 8670 c3 -5 8 -10 11 -10 2 0 4 5 4 10 0 6 -5 10 -11 10 -5 0
-7 -4 -4 -10z"/>
<path d="M8080 8640 c0 -5 5 -10 11 -10 5 0 7 5 4 10 -3 6 -8 10 -11 10 -2 0
-4 -4 -4 -10z"/>
<path d="M8734 8629 c-3 -6 -1 -16 5 -22 8 -8 11 -5 11 11 0 24 -5 28 -16 11z"/>
<path d="M8244 8574 c3 -9 6 -23 7 -32 0 -13 2 -13 8 3 9 23 4 45 -11 45 -6 0
-7 -7 -4 -16z"/>
<path d="M8305 8561 c-3 -5 -1 -12 5 -16 5 -3 10 1 10 9 0 18 -6 21 -15 7z"/>
<path d="M8220 8543 c0 -13 5 -23 10 -23 13 0 13 11 0 30 -8 12 -10 11 -10 -7z"/>
<path d="M8440 8538 c0 -16 5 -28 10 -28 13 0 13 20 0 40 -8 12 -10 9 -10 -12z"/>
<path d="M8709 8523 c-1 -16 -1 -43 0 -61 3 -40 -20 -69 -51 -67 -23 2 -66
-30 -56 -41 11 -10 48 7 48 22 0 8 5 14 10 14 6 0 10 -7 10 -15 0 -8 -4 -15
-10 -15 -15 0 -12 -51 5 -80 l14 -25 2 25 c1 14 1 34 1 45 -2 15 0 17 7 6 5
-8 14 -10 21 -6 9 6 11 -7 6 -56 -5 -54 -4 -59 5 -34 7 17 16 35 21 42 14 17
0 54 -28 76 -24 18 -24 19 -6 45 20 29 29 152 12 152 -6 0 -11 -12 -11 -27z"/>
<path d="M8877 8533 c-4 -3 -7 -13 -7 -22 1 -13 3 -13 11 2 11 19 8 33 -4 20z"/>
<path d="M7806 8513 c-7 -17 19 -52 30 -40 9 8 -4 57 -15 57 -5 0 -12 -8 -15
-17z"/>
<path d="M8360 8520 c0 -5 5 -10 10 -10 6 0 10 5 10 10 0 6 -4 10 -10 10 -5 0
-10 -4 -10 -10z"/>
<path d="M8340 8490 c0 -5 5 -10 11 -10 5 0 7 5 4 10 -3 6 -8 10 -11 10 -2 0
-4 -4 -4 -10z"/>
<path d="M8750 8494 c0 -5 7 -18 15 -28 8 -11 15 -16 15 -10 0 5 -7 18 -15 28
-8 11 -15 16 -15 10z"/>
<path d="M8842 8467 c-6 -6 -13 -24 -17 -40 -7 -26 -25 -38 -25 -17 0 6 -5 10
-10 10 -7 0 -8 -13 -4 -35 4 -23 2 -35 -5 -35 -6 0 -11 -5 -11 -12 0 -6 9 -3
20 7 11 10 20 13 20 7 0 -7 5 -12 10 -12 6 0 10 6 10 14 0 16 26 46 40 46 5 0
16 -7 25 -16 9 -9 19 -13 23 -10 4 4 -4 15 -17 25 -13 10 -22 22 -19 27 7 12
-9 54 -20 54 -5 0 -14 -6 -20 -13z m28 -34 c0 -5 -4 -15 -10 -23 -11 -18 -25
-7 -17 15 6 15 27 21 27 8z"/>
<path d="M8355 8450 c-10 -17 12 -37 25 -24 8 8 6 15 -4 23 -10 9 -16 9 -21 1z"/>
<path d="M8444 8438 c-3 -4 6 -8 20 -8 23 0 26 -4 26 -33 0 -18 -5 -38 -11
-44 -7 -7 -8 -13 0 -17 11 -7 18 15 23 76 4 34 2 36 -24 36 -16 -1 -31 -5 -34
-10z"/>
<path d="M8630 8420 c0 -5 5 -10 10 -10 6 0 10 5 10 10 0 6 -4 10 -10 10 -5 0
-10 -4 -10 -10z"/>
<path d="M8743 8399 c-8 -21 -9 -37 -3 -43 12 -12 22 14 18 49 l-3 28 -12 -34z"/>
<path d="M8550 8385 c0 -14 5 -25 10 -25 6 0 10 11 10 25 0 14 -4 25 -10 25
-5 0 -10 -11 -10 -25z"/>
<path d="M9002 8398 c-16 -16 -15 -28 3 -28 8 0 15 2 15 4 0 2 3 11 6 20 7 19
-7 21 -24 4z"/>
<path d="M8445 8390 c3 -5 8 -10 11 -10 2 0 4 5 4 10 0 6 -5 10 -11 10 -5 0
-7 -4 -4 -10z"/>
<path d="M8367 8382 c-9 -14 0 -69 13 -77 4 -3 10 6 12 20 3 14 2 25 -3 25 -4
0 -9 10 -11 23 -2 15 -5 18 -11 9z"/>
<path d="M8863 8343 c-4 -10 -11 -21 -17 -25 -7 -5 -3 -8 8 -8 11 0 34 -11 52
-25 18 -14 35 -21 38 -16 3 5 -1 11 -9 15 -8 3 -15 12 -15 21 0 8 -4 15 -9 15
-5 0 -13 9 -16 20 -8 25 -23 26 -32 3z"/>
<path d="M8970 8350 c0 -5 5 -10 10 -10 6 0 10 5 10 10 0 6 -4 10 -10 10 -5 0
-10 -4 -10 -10z"/>
<path d="M8422 8310 c-18 -29 -15 -36 8 -15 20 18 26 35 12 35 -4 0 -13 -9
-20 -20z"/>
<path d="M9055 8320 c-3 -5 -1 -10 4 -10 6 0 11 5 11 10 0 6 -2 10 -4 10 -3 0
-8 -4 -11 -10z"/>
<path d="M8470 8307 c0 -10 8 -17 18 -17 9 0 13 4 7 8 -5 4 -13 11 -17 16 -5
5 -8 2 -8 -7z"/>
<path d="M8631 8294 c0 -11 3 -14 6 -6 3 7 2 16 -1 19 -3 4 -6 -2 -5 -13z"/>
<path d="M8320 8294 c0 -2 10 -8 21 -15 17 -8 20 -8 17 2 -4 11 -38 23 -38 13z"/>
<path d="M8380 8269 c0 -25 36 -40 65 -27 14 6 25 15 25 20 0 12 -24 10 -38
-4 -9 -9 -16 -7 -32 7 -15 14 -20 15 -20 4z"/>
<path d="M9220 8254 c0 -9 7 -14 17 -12 25 5 28 28 4 28 -12 0 -21 -6 -21 -16z"/>
<path d="M7814 8216 c-3 -14 1 -36 10 -53 10 -18 15 -22 16 -11 0 9 -5 20 -11
24 -6 3 -9 19 -5 35 7 35 -1 39 -10 5z"/>
<path d="M8541 8221 c-9 -16 -10 -26 -2 -34 13 -13 25 12 19 40 -3 16 -5 15
-17 -6z"/>
<path d="M8670 8221 c0 -22 16 -36 24 -22 8 12 -3 41 -15 41 -5 0 -9 -9 -9
-19z"/>
<path d="M8377 8223 c-4 -3 -7 -11 -7 -17 0 -6 5 -5 12 2 6 6 9 14 7 17 -3 3
-9 2 -12 -2z"/>
<path d="M8440 8220 c0 -5 -6 -10 -14 -10 -15 0 -28 -24 -19 -34 4 -3 14 -6
24 -6 12 0 16 6 12 20 -3 11 0 20 6 20 6 0 11 5 11 10 0 6 -4 10 -10 10 -5 0
-10 -4 -10 -10z"/>
<path d="M8481 8214 c0 -11 3 -14 6 -6 3 7 2 16 -1 19 -3 4 -6 -2 -5 -13z"/>
<path d="M8590 8203 c0 -17 5 -35 10 -38 13 -8 13 35 0 55 -7 11 -10 7 -10
-17z"/>
<path d="M8620 8215 c0 -8 5 -15 10 -15 6 0 10 7 10 15 0 8 -4 15 -10 15 -5 0
-10 -7 -10 -15z"/>
<path d="M8770 8215 c0 -8 7 -15 15 -15 8 0 15 7 15 15 0 8 -7 15 -15 15 -8 0
-15 -7 -15 -15z"/>
<path d="M8950 8220 c0 -5 5 -10 10 -10 6 0 10 5 10 10 0 6 -4 10 -10 10 -5 0
-10 -4 -10 -10z"/>
<path d="M9572 8218 c6 -18 28 -21 28 -4 0 9 -7 16 -16 16 -9 0 -14 -5 -12
-12z"/>
<path d="M8483 8175 c-9 -25 4 -29 17 -6 7 15 7 21 0 21 -6 0 -13 -7 -17 -15z"/>
<path d="M8560 8180 c0 -5 5 -10 10 -10 6 0 10 5 10 10 0 6 -4 10 -10 10 -5 0
-10 -4 -10 -10z"/>
<path d="M9575 8180 c-3 -5 -1 -10 4 -10 6 0 11 5 11 10 0 6 -2 10 -4 10 -3 0
-8 -4 -11 -10z"/>
<path d="M7866 8165 c-3 -8 -1 -15 4 -15 6 0 10 7 10 15 0 8 -2 15 -4 15 -2 0
-6 -7 -10 -15z"/>
<path d="M8411 8136 c-4 -6 -11 -24 -15 -40 -6 -26 -5 -28 8 -17 8 7 12 19 9
27 -3 9 2 14 16 14 14 0 21 -6 21 -20 0 -13 6 -19 18 -17 35 5 42 17 23 36
-22 22 -68 32 -80 17z m74 -26 c3 -5 1 -10 -4 -10 -6 0 -11 5 -11 10 0 6 2 10
4 10 3 0 8 -4 11 -10z"/>
<path d="M8687 8143 c-10 -10 -8 -41 2 -48 5 -3 9 8 9 25 -1 33 -1 33 -11 23z"/>
<path d="M7920 8121 c0 -6 -6 -11 -14 -11 -19 0 -27 -25 -13 -43 13 -16 67
-29 67 -16 0 5 -9 14 -20 21 -22 14 -26 34 -8 40 9 3 9 6 0 12 -7 4 -12 2 -12
-3z"/>
<path d="M9567 8123 c-4 -3 -7 -11 -7 -17 0 -6 5 -5 12 2 6 6 9 14 7 17 -3 3
-9 2 -12 -2z"/>
<path d="M8620 8071 c0 -5 5 -13 10 -16 6 -3 10 -2 10 4 0 5 -4 13 -10 16 -5
3 -10 2 -10 -4z"/>
<path d="M7966 8001 c-4 -7 -5 -15 -2 -18 9 -9 19 4 14 18 -4 11 -6 11 -12 0z"/>
<path d="M8622 7904 c4 -21 22 -23 26 -1 2 10 -3 17 -13 17 -10 0 -15 -6 -13
-16z"/>
<path d="M8048 7833 c7 -3 16 -2 19 1 4 3 -2 6 -13 5 -11 0 -14 -3 -6 -6z"/>
<path d="M8250 7734 c0 -5 63 -34 75 -34 3 0 5 5 5 10 0 6 -9 10 -19 10 -11 0
-23 5 -26 10 -6 10 -35 14 -35 4z"/>
<path d="M9135 7690 c-3 -5 1 -10 9 -10 9 0 16 5 16 10 0 6 -4 10 -9 10 -6 0
-13 -4 -16 -10z"/>
<path d="M8450 7640 c-1 -14 -4 -19 -7 -12 -2 6 -9 12 -14 12 -14 0 -11 -28 4
-33 8 -4 8 -6 0 -6 -15 -1 -4 -41 11 -41 23 0 32 33 20 70 -12 31 -13 32 -14
10z"/>
<path d="M9250 7560 c0 -5 5 -10 10 -10 6 0 10 5 10 10 0 6 -4 10 -10 10 -5 0
-10 -4 -10 -10z"/>
<path d="M8480 7531 c0 -5 7 -12 16 -15 14 -5 15 -4 4 9 -14 17 -20 19 -20 6z"/>
<path d="M9054 7529 c-3 -6 -1 -16 5 -22 8 -8 11 -5 11 11 0 24 -5 28 -16 11z"/>
<path d="M8906 7274 c-3 -9 -6 -23 -6 -32 0 -14 4 -13 21 5 12 11 18 26 15 32
-10 16 -23 14 -30 -5z"/>
<path d="M8850 7200 c0 -5 5 -10 10 -10 6 0 10 5 10 10 0 6 -4 10 -10 10 -5 0
-10 -4 -10 -10z"/>
<path d="M8870 7110 c0 -19 3 -21 12 -12 9 9 9 15 0 24 -9 9 -12 7 -12 -12z"/>
<path d="M8775 7090 c4 -6 11 -8 16 -5 14 9 11 15 -7 15 -8 0 -12 -5 -9 -10z"/>
<path d="M8450 7060 c0 -5 5 -10 11 -10 5 0 7 5 4 10 -3 6 -8 10 -11 10 -2 0
-4 -4 -4 -10z"/>
<path d="M8490 7040 c0 -5 5 -10 11 -10 5 0 7 5 4 10 -3 6 -8 10 -11 10 -2 0
-4 -4 -4 -10z"/>
<path d="M11150 8960 c-11 -7 -12 -12 -3 -21 8 -8 14 -6 22 10 12 22 5 27 -19
11z"/>
<path d="M11085 8870 c3 -5 10 -10 16 -10 5 0 9 5 9 10 0 6 -7 10 -16 10 -8 0
-12 -4 -9 -10z"/>
<path d="M11000 8799 c0 -5 5 -7 10 -4 6 3 10 8 10 11 0 2 -4 4 -10 4 -5 0
-10 -5 -10 -11z"/>
<path d="M10900 8785 c0 -8 5 -15 10 -15 6 0 10 7 10 15 0 8 -4 15 -10 15 -5
0 -10 -7 -10 -15z"/>
<path d="M10730 8710 c0 -5 5 -10 10 -10 6 0 10 5 10 10 0 6 -4 10 -10 10 -5
0 -10 -4 -10 -10z"/>
<path d="M10690 8570 c0 -5 5 -10 10 -10 6 0 10 5 10 10 0 6 -4 10 -10 10 -5
0 -10 -4 -10 -10z"/>
<path d="M10610 8510 c0 -5 7 -10 16 -10 8 0 12 5 9 10 -3 6 -10 10 -16 10 -5
0 -9 -4 -9 -10z"/>
<path d="M10526 8493 c-3 -3 -6 -14 -6 -24 0 -12 -5 -16 -15 -13 -12 5 -15 -2
-15 -30 0 -20 3 -36 8 -36 11 1 40 45 47 73 6 24 -6 43 -19 30z"/>
<path d="M10570 8484 c0 -8 5 -12 10 -9 6 4 8 11 5 16 -9 14 -15 11 -15 -7z"/>
<path d="M10560 8399 c0 -5 5 -7 10 -4 6 3 10 8 10 11 0 2 -4 4 -10 4 -5 0
-10 -5 -10 -11z"/>
<path d="M10597 8393 c-12 -11 -8 -23 7 -23 8 0 16 7 20 15 5 15 -14 21 -27 8z"/>
<path d="M9405 8630 c3 -5 8 -10 11 -10 2 0 4 5 4 10 0 6 -5 10 -11 10 -5 0
-7 -4 -4 -10z"/>
<path d="M11164 7806 c-15 -12 -17 -17 -6 -27 9 -10 15 -10 24 -1 7 7 17 8 30
1 24 -13 25 9 1 27 -23 17 -25 17 -49 0z"/>
<path d="M11097 7733 c-4 -3 -7 -12 -7 -20 0 -11 5 -11 20 -3 11 6 20 15 20
20 0 11 -23 13 -33 3z"/>
<path d="M11220 7724 c0 -8 5 -12 10 -9 6 3 10 10 10 16 0 5 -4 9 -10 9 -5 0
-10 -7 -10 -16z"/>
<path d="M11250 7693 c0 -10 -3 -28 -6 -40 -5 -19 -2 -23 15 -23 20 0 24 -8
22 -40 -1 -20 27 -56 36 -46 4 4 1 16 -6 28 -10 16 -10 22 -1 28 7 4 9 13 5
20 -5 9 -4 11 3 6 14 -8 15 3 3 23 -6 9 -11 10 -15 2 -10 -16 -29 -2 -22 16 7
16 -10 43 -25 43 -5 0 -9 -8 -9 -17z"/>
<path d="M11355 7580 c-4 -6 -3 -16 3 -22 13 -13 23 4 13 21 -7 10 -10 10 -16
1z"/>
<path d="M11236 7551 c-19 -21 -13 -46 8 -38 20 8 40 -9 33 -28 -5 -11 -13
-14 -27 -10 -15 5 -20 2 -20 -13 0 -15 -5 -18 -27 -14 -26 4 -27 3 -11 -13 15
-16 18 -16 60 12 39 27 49 30 106 25 53 -4 61 -2 56 11 -4 11 -18 16 -45 15
-23 0 -47 6 -58 16 -10 9 -23 16 -29 16 -7 0 -12 9 -12 20 0 25 -12 25 -34 1z"/>
<path d="M11135 7460 c3 -5 8 -10 11 -10 2 0 4 5 4 10 0 6 -5 10 -11 10 -5 0
-7 -4 -4 -10z"/>
<path d="M11095 7409 c-10 -15 3 -25 16 -12 7 7 7 13 1 17 -6 3 -14 1 -17 -5z"/>
<path d="M11040 7381 c0 -13 26 -32 33 -24 8 7 -11 33 -24 33 -5 0 -9 -4 -9
-9z"/>
<path d="M10930 7346 c0 -8 5 -18 10 -21 6 -3 10 3 10 14 0 12 -4 21 -10 21
-5 0 -10 -6 -10 -14z"/>
<path d="M11201 7224 c0 -11 3 -14 6 -6 3 7 2 16 -1 19 -3 4 -6 -2 -5 -13z"/>
<path d="M11305 7190 c3 -5 8 -10 11 -10 2 0 4 5 4 10 0 6 -5 10 -11 10 -5 0
-7 -4 -4 -10z"/>
<path d="M11722 7010 c0 -14 2 -19 5 -12 2 6 2 18 0 25 -3 6 -5 1 -5 -13z"/>
<path d="M8280 6880 c-11 -20 -10 -25 4 -35 13 -10 14 -18 5 -44 -15 -42 -5
-50 26 -21 17 16 22 26 14 31 -7 4 -9 16 -6 28 3 12 -2 30 -13 43 l-17 22 -13
-24z"/>
<path d="M8355 6810 c-3 -5 -1 -10 4 -10 6 0 11 5 11 10 0 6 -2 10 -4 10 -3 0
-8 -4 -11 -10z"/>
<path d="M8346 6761 c-4 -7 -5 -15 -2 -18 9 -9 19 4 14 18 -4 11 -6 11 -12 0z"/>
<path d="M8511 6734 c0 -11 3 -14 6 -6 3 7 2 16 -1 19 -3 4 -6 -2 -5 -13z"/>
<path d="M8458 6723 c7 -3 16 -2 19 1 4 3 -2 6 -13 5 -11 0 -14 -3 -6 -6z"/>
<path d="M8330 6640 c0 -5 5 -10 10 -10 6 0 10 5 10 10 0 6 -4 10 -10 10 -5 0
-10 -4 -10 -10z"/>
<path d="M8507 6523 c-4 -3 -7 -16 -6 -27 0 -19 1 -19 10 3 10 24 8 36 -4 24z"/>
<path d="M11794 6403 c-4 -16 -13 -32 -20 -38 -8 -5 -15 -20 -17 -32 -2 -12
-6 -26 -10 -29 -4 -4 -7 -20 -7 -35 0 -15 -4 -30 -9 -33 -30 -19 -8 -96 27
-96 26 1 55 47 48 76 -4 14 0 34 9 48 12 17 13 26 5 31 -6 4 -9 13 -6 21 3 8
1 14 -3 14 -17 0 -21 33 -6 50 17 19 20 50 5 50 -5 0 -13 -12 -16 -27z"/>
<path d="M8870 6336 c0 -9 7 -12 21 -9 16 4 17 8 7 14 -19 13 -28 11 -28 -5z"/>
<path d="M11697 6059 c-5 -19 -8 -20 -21 -9 -14 11 -16 9 -16 -14 0 -15 4 -25
9 -21 12 7 25 -31 16 -45 -3 -5 -1 -10 4 -10 6 0 11 11 11 25 0 13 5 36 12 50
8 18 8 29 1 36 -7 7 -12 3 -16 -12z"/>
<path d="M8561 6014 c0 -11 3 -14 6 -6 3 7 2 16 -1 19 -3 4 -6 -2 -5 -13z"/>
<path d="M11670 5880 c-1 -8 -4 -25 -5 -37 -1 -12 -5 -28 -8 -37 -3 -8 -2 -18
4 -21 14 -9 21 17 16 66 -2 24 -5 37 -7 29z"/>
<path d="M11557 5674 c-8 -8 1 -24 14 -24 5 0 9 7 9 15 0 15 -12 20 -23 9z"/>
<path d="M11572 5610 c0 -14 2 -19 5 -12 2 6 2 18 0 25 -3 6 -5 1 -5 -13z"/>
<path d="M8480 5509 c0 -5 5 -7 10 -4 6 3 10 8 10 11 0 2 -4 4 -10 4 -5 0 -10
-5 -10 -11z"/>
<path d="M11520 5500 c0 -5 5 -10 10 -10 6 0 10 5 10 10 0 6 -4 10 -10 10 -5
0 -10 -4 -10 -10z"/>
<path d="M12013 4990 c0 -30 2 -43 4 -27 2 15 2 39 0 55 -2 15 -4 2 -4 -28z"/>
<path d="M11987 4441 c-4 -18 -7 -50 -6 -70 1 -36 1 -36 10 9 5 25 8 56 7 70
-3 22 -4 21 -11 -9z"/>
<path d="M6571 3659 c-2 -43 55 -193 69 -184 9 5 -15 88 -37 128 -8 16 -19 41
-23 55 l-8 27 -1 -26z"/>
<path d="M6653 3360 c0 -25 2 -35 4 -22 2 12 2 32 0 45 -2 12 -4 2 -4 -23z"/>
<path d="M6652 3107 c-8 -19 -9 -40 -3 -60 l8 -32 7 36 c4 20 6 47 4 60 -4 24
-5 24 -16 -4z"/>
<path d="M6627 2923 c-13 -12 -6 -68 13 -113 l19 -45 0 83 c1 62 -2 82 -12 82
-8 0 -17 -3 -20 -7z"/>
<path d="M9380 2793 c-24 -9 -99 -73 -110 -93 -10 -19 -9 -19 32 -4 24 9 80
18 126 21 78 6 84 8 99 34 10 16 21 29 25 29 4 0 8 5 8 10 0 10 -153 13 -180
3z"/>
<path d="M8013 2604 c-6 -11 -15 -46 -22 -79 -7 -33 -21 -98 -31 -145 -11 -47
-29 -132 -40 -190 -20 -99 -67 -323 -111 -525 -27 -123 -42 -287 -28 -295 6
-4 25 -4 42 -1 32 7 32 8 40 81 4 41 12 91 17 110 5 19 13 62 19 95 6 33 24
132 41 220 16 88 36 196 44 240 41 220 77 398 83 407 9 15 282 3 364 -16 36
-9 85 -23 109 -31 133 -47 231 -55 369 -29 94 17 156 46 214 100 36 34 54 62
20 32 -10 -9 -38 -26 -63 -39 -41 -22 -60 -24 -211 -27 -180 -4 -217 2 -434
69 -88 27 -119 31 -256 36 -147 5 -158 4 -166 -13z"/>
<path d="M10034 2478 c11 -129 15 -148 37 -148 24 0 35 25 20 44 -9 11 -30
126 -31 174 0 6 -7 12 -16 12 -15 0 -16 -10 -10 -82z"/>
<path d="M9818 2453 c-16 -19 -64 -200 -56 -209 9 -9 37 8 43 26 9 28 51 51
79 44 45 -11 48 4 15 66 -17 32 -39 66 -48 75 -16 14 -19 14 -33 -2z m32 -94
c0 -11 -7 -19 -16 -19 -11 0 -14 5 -10 16 3 9 6 20 6 25 0 6 5 7 10 4 6 -3 10
-15 10 -26z"/>
<path d="M11980 2448 c0 -13 5 -30 10 -38 7 -11 10 -7 10 17 0 17 -4 35 -10
38 -6 3 -10 -4 -10 -17z"/>
<path d="M9552 2372 c-9 -6 -10 -20 -3 -55 5 -28 5 -50 0 -53 -11 -7 -49 22
-84 64 -15 18 -36 32 -47 32 -19 0 -20 -4 -13 -102 4 -57 10 -107 14 -111 4
-4 15 -5 24 -1 14 5 15 16 10 65 -6 65 -1 72 28 35 30 -38 85 -69 110 -61 20
7 21 12 15 71 -13 122 -20 137 -54 116z"/>
<path d="M9258 2295 c-9 -31 -12 -58 -7 -61 8 -5 13 9 24 79 9 54 1 46 -17
-18z"/>
<path d="M8953 2322 c-7 -5 -12 -43 -14 -107 -1 -86 1 -100 15 -103 22 -5 32
27 39 125 5 68 4 82 -9 87 -19 7 -16 7 -31 -2z"/>
<path d="M9143 2288 c-37 -40 -58 -80 -67 -130 -8 -44 1 -48 33 -14 19 20 20
24 6 30 -15 5 -14 11 7 47 13 23 34 47 48 53 28 12 41 26 34 38 -10 16 -31 7
-61 -24z"/>
<path d="M9147 2233 c-4 -3 -7 -15 -7 -27 0 -20 0 -20 15 0 8 10 15 22 15 27
0 9 -14 9 -23 0z"/>
<path d="M9238 2185 c-2 -19 0 -35 4 -35 4 0 8 16 8 35 0 19 -2 35 -4 35 -2 0
-6 -16 -8 -35z"/>
<path d="M10045 2211 c-3 -5 -2 -41 1 -80 7 -70 7 -71 25 -49 23 25 24 54 4
62 -8 3 -15 12 -15 21 0 8 7 15 15 15 20 0 19 26 -1 34 -20 8 -22 8 -29 -3z"/>
<path d="M9882 2198 c-5 -7 -13 -35 -16 -63 -4 -27 -10 -60 -13 -72 -4 -17 -1
-23 11 -23 9 0 19 7 22 15 8 20 43 19 66 -2 10 -9 21 -14 24 -11 7 8 -23 98
-46 136 -21 35 -32 39 -48 20z m41 -72 c3 -8 -1 -17 -9 -20 -9 -4 -14 1 -14
14 0 23 15 27 23 6z"/>
<path d="M8745 2146 c-18 -13 -18 -15 -3 -21 26 -10 63 -2 63 15 0 20 -36 24
-60 6z"/>
<path d="M9678 2123 c-16 -4 -22 -14 -20 -34 6 -55 13 -104 16 -107 7 -6 76
27 76 37 0 5 -12 11 -27 13 l-28 4 27 13 c30 15 28 31 -3 31 -10 0 -19 5 -19
10 0 6 6 10 14 10 8 0 16 7 20 15 5 15 -17 18 -56 8z"/>
<path d="M9514 2040 c-9 -52 -19 -58 -39 -20 -18 36 -32 38 -44 8 -5 -13 -13
-34 -19 -48 l-9 -25 -23 38 c-20 34 -59 54 -47 25 41 -100 51 -118 66 -118 24
0 41 20 41 46 0 34 18 39 32 10 23 -51 53 -29 67 48 14 76 14 76 -4 76 -10 0
-17 -14 -21 -40z"/>
<path d="M8414 2050 c-39 -25 -62 -73 -45 -94 12 -14 2 -27 -31 -39 -20 -7
-24 -37 -5 -38 6 0 2 -4 -10 -9 -23 -9 -32 -30 -13 -30 20 0 79 34 85 49 4 9
-1 21 -11 28 -10 7 -12 13 -6 13 7 0 12 7 12 15 0 8 7 15 15 15 8 0 15 9 15
19 0 26 37 51 73 51 27 0 29 -2 23 -27 -22 -92 -23 -105 -10 -110 17 -6 34 4
34 21 0 8 14 16 30 20 41 8 63 52 36 71 -10 8 -25 11 -33 8 -12 -5 -14 -1 -8
15 5 18 1 24 -20 32 -42 16 -97 11 -131 -10z m156 -80 c0 -5 -7 -10 -16 -10
-8 0 -12 5 -9 10 3 6 10 10 16 10 5 0 9 -4 9 -10z"/>
<path d="M8749 2033 c-39 -10 -53 -114 -21 -153 25 -31 64 -21 91 24 48 77 8
150 -70 129z m56 -77 c0 -32 -23 -53 -49 -43 -19 7 -21 48 -4 65 7 7 22 11 33
10 15 -2 20 -11 20 -32z"/>
<path d="M9028 2032 c-12 -2 -18 -13 -18 -30 l0 -26 21 21 c24 24 22 40 -3 35z"/>
<path d="M9151 2011 c-19 -35 -13 -60 20 -76 34 -18 34 -40 -1 -40 -30 0 -37
-21 -10 -30 31 -10 68 2 75 24 8 28 -3 48 -41 71 -37 21 -38 40 -3 40 27 0 19
24 -9 28 -13 2 -25 -4 -31 -17z"/>
<path d="M8920 2005 c-15 -18 -13 -22 15 -27 14 -2 21 3 23 20 4 26 -19 30
-38 7z"/>
<path d="M8880 1933 c-8 -21 -16 -41 -18 -45 -2 -4 9 -6 25 -5 22 2 29 8 31
27 2 14 8 29 13 35 15 16 10 25 -14 25 -17 0 -27 -9 -37 -37z"/>
<path d="M9805 1873 c-138 -13 -276 -44 -344 -77 -41 -19 -97 -40 -125 -45
-28 -6 -89 -18 -136 -27 -145 -30 -448 -20 -666 21 -137 27 -274 17 -274 -20
0 -12 15 -15 78 -15 42 -1 113 -7 157 -16 44 -8 148 -19 230 -24 83 -5 188
-12 235 -16 69 -5 109 -2 215 19 72 14 147 28 169 32 21 3 78 24 126 45 112
49 269 72 480 70 204 -3 200 -3 200 20 0 11 -6 22 -12 25 -20 6 -288 13 -333
8z"/>
<path d="M10376 1234 c-8 -21 -8 -21 12 -26 15 -4 18 -1 14 18 -5 28 -17 31
-26 8z"/>
<path d="M5010 1012 c0 -4 9 -13 20 -20 19 -12 20 -11 8 8 -13 20 -28 27 -28
12z"/>
<path d="M4915 987 c-4 -10 -5 -21 -1 -24 10 -10 18 4 13 24 -4 17 -4 17 -12
0z"/>
<path d="M4972 989 c2 -6 8 -10 13 -10 5 0 11 4 13 10 2 6 -4 11 -13 11 -9 0
-15 -5 -13 -11z"/>
<path d="M5100 951 c0 -6 5 -13 10 -16 6 -3 10 1 10 9 0 9 -4 16 -10 16 -5 0
-10 -4 -10 -9z"/>
<path d="M4566 835 c-11 -8 -17 -17 -14 -20 7 -8 68 15 68 26 0 14 -33 10 -54
-6z"/>
<path d="M5145 800 c-3 -5 -1 -10 4 -10 6 0 11 5 11 10 0 6 -2 10 -4 10 -3 0
-8 -4 -11 -10z"/>
<path d="M5375 800 l-20 -9 20 0 c11 0 27 4 35 9 13 9 13 10 0 9 -8 0 -24 -4
-35 -9z"/>
<path d="M4974 745 c12 -28 26 -33 26 -10 0 8 -9 19 -19 24 -17 10 -18 9 -7
-14z"/>
<path d="M8618 763 c7 -3 16 -2 19 1 4 3 -2 6 -13 5 -11 0 -14 -3 -6 -6z"/>
<path d="M7135 749 c-10 -15 3 -25 16 -12 7 7 7 13 1 17 -6 3 -14 1 -17 -5z"/>
<path d="M4820 734 c0 -8 5 -12 10 -9 6 4 8 11 5 16 -9 14 -15 11 -15 -7z"/>
<path d="M5745 729 c-4 -6 -5 -13 -2 -16 7 -7 27 6 27 18 0 12 -17 12 -25 -2z"/>
<path d="M7552 731 c4 -13 18 -16 19 -4 0 4 -5 9 -11 12 -7 2 -11 -2 -8 -8z"/>
<path d="M5100 720 c0 -5 5 -10 10 -10 6 0 10 5 10 10 0 6 -4 10 -10 10 -5 0
-10 -4 -10 -10z"/>
<path d="M7380 720 c0 -5 7 -7 15 -4 8 4 15 8 15 10 0 2 -7 4 -15 4 -8 0 -15
-4 -15 -10z"/>
<path d="M8498 723 c7 -3 16 -2 19 1 4 3 -2 6 -13 5 -11 0 -14 -3 -6 -6z"/>
<path d="M5820 705 c0 -27 31 -65 54 -65 20 1 20 2 4 14 -10 7 -18 20 -18 28
0 15 -19 38 -32 38 -4 0 -8 -7 -8 -15z"/>
<path d="M7916 704 c-9 -23 -2 -28 13 -10 7 8 8 17 3 20 -6 3 -13 -1 -16 -10z"/>
<path d="M5201 694 c0 -11 3 -14 6 -6 3 7 2 16 -1 19 -3 4 -6 -2 -5 -13z"/>
<path d="M7111 694 c0 -11 3 -14 6 -6 3 7 2 16 -1 19 -3 4 -6 -2 -5 -13z"/>
<path d="M7170 694 c0 -8 5 -12 10 -9 6 4 8 11 5 16 -9 14 -15 11 -15 -7z"/>
<path d="M7825 700 c-3 -6 1 -13 10 -16 21 -9 26 -2 10 13 -9 8 -16 9 -20 3z"/>
<path d="M5226 673 c4 -15 12 -31 18 -35 8 -5 7 -8 -1 -8 -19 0 -15 -18 6 -30
12 -6 28 -7 43 -1 l23 9 -27 12 c-21 10 -25 16 -18 30 12 22 1 33 -17 19 -10
-9 -13 -8 -13 4 0 9 -5 19 -10 22 -7 4 -8 -3 -4 -22z"/>
<path d="M5905 687 c-10 -25 10 -45 32 -31 26 16 30 38 5 32 -12 -3 -23 -1
-25 6 -3 6 -8 3 -12 -7z"/>
<path d="M6230 691 c0 -6 5 -13 10 -16 6 -3 10 1 10 9 0 9 -4 16 -10 16 -5 0
-10 -4 -10 -9z"/>
<path d="M6610 690 c0 -5 7 -10 15 -10 8 0 15 5 15 10 0 6 -7 10 -15 10 -8 0
-15 -4 -15 -10z"/>
<path d="M5100 670 c0 -5 5 -10 10 -10 6 0 10 5 10 10 0 6 -4 10 -10 10 -5 0
-10 -4 -10 -10z"/>
<path d="M5747 674 c-14 -14 -6 -24 19 -24 16 0 24 5 22 13 -5 14 -31 21 -41
11z"/>
<path d="M6488 673 c7 -3 16 -2 19 1 4 3 -2 6 -13 5 -11 0 -14 -3 -6 -6z"/>
<path d="M6100 650 c0 -5 4 -10 9 -10 6 0 13 5 16 10 3 6 -1 10 -9 10 -9 0
-16 -4 -16 -10z"/>
<path d="M5767 633 c-10 -10 -8 -33 3 -33 5 0 14 9 20 20 8 15 8 20 -3 20 -8
0 -17 -3 -20 -7z"/>
<path d="M6210 630 c0 -5 5 -10 10 -10 6 0 10 5 10 10 0 6 -4 10 -10 10 -5 0
-10 -4 -10 -10z"/>
<path d="M12810 611 c0 -6 5 -13 10 -16 6 -3 10 1 10 9 0 9 -4 16 -10 16 -5 0
-10 -4 -10 -9z"/>
<path d="M5550 589 c0 -5 5 -7 10 -4 6 3 10 8 10 11 0 2 -4 4 -10 4 -5 0 -10
-5 -10 -11z"/>
<path d="M6056 577 c-11 -8 -15 -17 -10 -20 14 -8 37 8 33 22 -3 8 -10 8 -23
-2z"/>
<path d="M6126 554 c6 -24 5 -26 -29 -23 -42 4 -51 -2 -43 -29 8 -23 36 -24
53 -2 9 12 16 12 30 4 10 -6 24 -9 31 -7 20 7 14 30 -10 36 -17 5 -19 9 -10
20 13 15 6 27 -15 27 -9 0 -11 -8 -7 -26z"/>
<path d="M6170 570 c0 -5 5 -10 11 -10 5 0 7 5 4 10 -3 6 -8 10 -11 10 -2 0
-4 -4 -4 -10z"/>
<path d="M12770 570 c0 -5 7 -10 15 -10 8 0 15 5 15 10 0 6 -7 10 -15 10 -8 0
-15 -4 -15 -10z"/>
<path d="M5968 563 c7 -3 16 -2 19 1 4 3 -2 6 -13 5 -11 0 -14 -3 -6 -6z"/>
<path d="M6236 545 c4 -8 10 -12 15 -9 14 8 10 24 -6 24 -9 0 -12 -6 -9 -15z"/>
<path d="M6358 523 c7 -3 16 -2 19 1 4 3 -2 6 -13 5 -11 0 -14 -3 -6 -6z"/>
<path d="M10860 440 c-7 -4 -10 -12 -7 -17 7 -12 67 -15 67 -4 0 13 -46 30
-60 21z"/>
<path d="M6547 433 c-12 -11 -8 -23 8 -23 8 0 15 7 15 15 0 16 -12 20 -23 8z"/>
<path d="M7790 429 c0 -5 5 -7 10 -4 6 3 10 8 10 11 0 2 -4 4 -10 4 -5 0 -10
-5 -10 -11z"/>
<path d="M8276 415 c4 -8 8 -15 10 -15 2 0 4 7 4 15 0 8 -4 15 -10 15 -5 0 -7
-7 -4 -15z"/>
<path d="M8650 403 c0 -5 5 -15 10 -23 9 -13 11 -13 19 0 5 8 7 18 5 22 -6 10
-34 11 -34 1z"/>
<path d="M9500 400 c-12 -8 -10 -10 11 -10 14 0 30 -5 36 -11 8 -8 13 -8 17 0
17 27 -31 42 -64 21z"/>
<path d="M9864 388 c1 -27 13 -38 41 -38 19 1 19 1 2 11 -9 6 -14 15 -11 21 4
6 0 14 -7 19 -21 13 -26 11 -25 -13z"/>
<path d="M10956 401 c-4 -5 -2 -12 3 -15 5 -4 12 -2 15 3 4 5 2 12 -3 15 -5 4
-12 2 -15 -3z"/>
<path d="M6682 369 c2 -6 8 -10 13 -10 5 0 11 4 13 10 2 6 -4 11 -13 11 -9 0
-15 -5 -13 -11z"/>
<path d="M9458 373 c-28 -7 -21 -21 7 -15 14 2 22 8 19 13 -3 5 -6 8 -7 8 -1
-1 -10 -3 -19 -6z"/>
<path d="M10310 370 c0 -12 17 -12 45 0 17 7 15 9 -12 9 -18 1 -33 -3 -33 -9z"/>
<path d="M10880 370 c0 -5 4 -10 9 -10 6 0 13 5 16 10 3 6 -1 10 -9 10 -9 0
-16 -4 -16 -10z"/>
<path d="M9640 361 c0 -14 18 -23 31 -15 8 4 7 9 -2 15 -18 11 -29 11 -29 0z"/>
<path d="M10250 360 c0 -12 28 -25 36 -17 3 3 -4 10 -15 17 -15 7 -21 7 -21 0z"/>
<path d="M7215 351 c-6 -11 9 -23 19 -14 9 9 7 23 -3 23 -6 0 -12 -4 -16 -9z"/>
<path d="M8570 346 c0 -9 5 -16 10 -16 6 0 10 4 10 9 0 6 -4 13 -10 16 -5 3
-10 -1 -10 -9z"/>
<path d="M10619 6990 c-8 -61 9 -80 28 -31 9 24 8 31 -4 35 -20 8 -23 8 -24
-4z"/>
</g>
</svg>
